<svg xmlns="http://www.w3.org/2000/svg" viewBox="0 0 57 60"><defs><style>.cls-1{fill:#e7eefa;}.cls-2,.cls-3{fill:#fff;}.cls-2,.cls-4{stroke:#334e6c;stroke-miterlimit:10;stroke-width:2px;}.cls-4{fill:none;}.cls-5{fill:#6ac5fe;}</style></defs><g id="Layer_2" data-name="Layer 2"><g id="icons"><circle class="cls-1" cx="24" cy="24" r="24" transform="translate(-9.94 24.12) rotate(-45.2)"/><path class="cls-2" d="M45.5,19.69A4.59,4.59,0,0,1,41,14.8V13.19a4.52,4.52,0,1,1,9,0V14.8A4.59,4.59,0,0,1,45.5,19.69Z"/><path class="cls-3" d="M50,23H40c-3.5,0-5.21,3.6-5.72,4.6S32.63,31,32.63,31L39,35.16V60H51V43h1a4,4,0,0,0,4-4V30.2C56,26.1,53.11,23,50,23Z"/><path class="cls-4" d="M32.63,31s1.14-2.4,1.65-3.4S36.5,23,40,23H50c3.11,0,6,3.1,6,7.2V39a4,4,0,0,1-4,4H51"/><polyline class="cls-4" points="39 60 39 31.84 34.07 37.53"/><line class="cls-4" x1="51" y1="30" x2="51" y2="60"/><line class="cls-4" x1="45" y1="43" x2="45" y2="60"/><path class="cls-2" d="M16,19.69a5,5,0,0,0,5-4.89V13.19a5,5,0,0,0-10,0V14.8A5,5,0,0,0,16,19.69Z"/><path class="cls-5" d="M28.38,29.41C26.92,27.42,24.74,23,20,23H12a7.3,7.3,0,0,0-7,7v8c0,2.23,2.77,5,5,5V60H22V32l6.8,6.76a2.86,2.86,0,0,0,4,0l1.23-1.23S29.84,31.39,28.38,29.41Z"/><path class="cls-4" d="M22,60V32l6.8,6.76a2.86,2.86,0,0,0,4,0l1.23-1.23s-4.23-6.14-5.69-8.12S24.74,23,20,23H12a7.3,7.3,0,0,0-7,7v8c0,2.23,2.77,5,5,5"/><line class="cls-4" x1="10" y1="30" x2="10" y2="60"/><line class="cls-4" x1="16" y1="43" x2="16" y2="60"/></g></g></svg>