<svg xmlns="http://www.w3.org/2000/svg" viewBox="0 0 58.21 57.38"><defs><style>.cls-1,.cls-3{fill:#e7eefa;}.cls-2{fill:#fff;}.cls-2,.cls-3,.cls-4,.cls-5{stroke:#334e6c;stroke-miterlimit:10;stroke-width:2px;}.cls-4{fill:#6ac5fe;}.cls-5{fill:none;}</style></defs><g id="Layer_2" data-name="Layer 2"><g id="icons"><circle class="cls-1" cx="30.21" cy="27.38" r="25"/><polygon class="cls-2" points="16.21 5.38 16.21 55.38 21.21 55.38 21.28 5.38 16.21 5.38"/><polygon class="cls-3" points="15.28 35.38 15.21 52.38 14.21 54.38 14.21 55.38 23.21 55.38 23.21 54.38 22.21 52.38 22.21 35.38 21.28 32.38 16.28 32.38 15.28 35.38"/><path class="cls-4" d="M29.21,10.38c-.76,0-1.21-2-3-2-3,0-4.93,1.42-4.93,5h-5s-1-5-3.42-5c-4.72,0-8.54,3.15-10.3,4.59,0,0-.92-.75-1.28-1.13C5,6.3,9.56,1.38,15.21,1.38h7c1.71,0,2.39,2,4,2,2,0,2-2,4-2h2v9Z"/><path class="cls-2" d="M51.21,1.38v8h-8v-8a8.18,8.18,0,0,0-6,8v2c0,3.47,2.91,5.56,6.07,7,0,0-.05,23.2-.07,34a4,4,0,0,0,4,4h0a4,4,0,0,0,4-4c0-10.8.07-34,.07-34,3.15-1.44,5.93-3.53,5.93-7v-2A8.2,8.2,0,0,0,51.21,1.38Z"/><line class="cls-5" x1="47.21" y1="18.38" x2="47.21" y2="49.38"/><line class="cls-5" x1="32.21" y1="35.38" x2="32.21" y2="15.38"/><path class="cls-4" d="M29.21,35.38v2l1,1v16a2,2,0,1,0,3.95,0l0-16,1-1v-2Z"/><line class="cls-5" x1="47.21" y1="51.38" x2="47.21" y2="53.38"/></g></g></svg>