<svg xmlns="http://www.w3.org/2000/svg" viewBox="0 0 63.72 48.85"><defs><style>.cls-1{fill:#e7eefa;}.cls-2,.cls-3{fill:none;}.cls-2{stroke:#e7eefa;}.cls-2,.cls-3,.cls-4,.cls-5{stroke-miterlimit:10;stroke-width:2px;}.cls-3,.cls-4,.cls-5{stroke:#334e6c;}.cls-4{fill:#fff;}.cls-5{fill:#6ac5fe;}</style></defs><g id="Layer_2" data-name="Layer 2"><g id="Icons"><circle class="cls-1" cx="32.01" cy="28.85" r="20" transform="matrix(0.16, -0.99, 0.99, 0.16, -1.57, 55.86)"/><path class="cls-2" d="M53.76,35.49a14.94,14.94,0,0,0,0-17.61"/><path class="cls-2" d="M57.14,10.28a26.38,26.38,0,0,1,5.58,16.41A26.43,26.43,0,0,1,57.2,43"/><path class="cls-2" d="M10,35.49a14.94,14.94,0,0,1,0-17.61"/><path class="cls-2" d="M6.58,10.28A26.38,26.38,0,0,0,1,26.69,26.38,26.38,0,0,0,6.53,43"/><path class="cls-3" d="M34.53,3.78A2.78,2.78,0,1,1,31.76,1,2.78,2.78,0,0,1,34.53,3.78Z"/><path class="cls-4" d="M38,34.93c0,2.88-2.81,5.22-6.27,5.22s-6.27-2.34-6.27-5.22,2.81-5.23,6.27-5.23S38,32,38,34.93Z"/><path class="cls-5" d="M47.05,26.83a14.4,14.4,0,0,1-4.37-9.69c-.52-5.86-5-10.58-10.92-10.58S21.35,11.28,20.83,17.14a14.4,14.4,0,0,1-4.37,9.69,12.3,12.3,0,0,0-1.28,5.36c4,2,9.61,2.81,16.82,2.81s12.3-.8,16.33-2.81A12.3,12.3,0,0,0,47.05,26.83Z"/><path class="cls-3" d="M29.85,10.17A7.19,7.19,0,0,0,26,12.94a7.14,7.14,0,0,0-1.51,4.53"/></g></g></svg>