<svg xmlns="http://www.w3.org/2000/svg" viewBox="0 0 56 58.46"><defs><style>.cls-1{fill:#e7eefa;}.cls-2{fill:#fff;}.cls-2,.cls-3,.cls-4{stroke:#334e6c;stroke-miterlimit:10;stroke-width:2px;}.cls-3,.cls-5{fill:#6ac5fe;}.cls-4{fill:none;}</style></defs><g id="Layer_2" data-name="Layer 2"><g id="icons"><path class="cls-1" d="M56,29c0,14.1-11,23.45-24.5,23.45S7,43.11,7,29,18,3.46,31.5,3.46,56,14.9,56,29Z"/><rect class="cls-2" x="21" y="39.46" width="30" height="18" transform="translate(72 96.93) rotate(180)"/><rect class="cls-3" x="31" y="39.46" width="9" height="5" transform="translate(71 83.93) rotate(180)"/><line class="cls-4" x1="48" y1="53.46" x2="46" y2="53.46"/><line class="cls-4" x1="44" y1="53.46" x2="42" y2="53.46"/><line class="cls-4" x1="40" y1="53.46" x2="38" y2="53.46"/><path class="cls-5" d="M27.61,25.15c-1.7-2.3-4.27-7.69-9.75-7.69H8.6C5,17.46,1,21.3,1,26.11v9.26c0,2.27,2.61,4.85,5,5.43V58.46H20V57.21l1,1.25v-30l6.45,6.81a3.06,3.06,0,0,0,4.46,0l1.32-1.43S29.29,27.44,27.61,25.15Z"/><path class="cls-2" d="M14,14.19c2.58,0,5-1.6,5-4.73V5.67C19,2.54,16.58,1,14,1S9,2.54,9,5.67V9.46C9,12.59,11.42,14.19,14,14.19Z"/><path class="cls-4" d="M21,58.46v-30l6.45,6.81a3.06,3.06,0,0,0,4.46,0l1.32-1.43s-3.94-6.38-5.62-8.67-4.27-7.69-9.75-7.69H8.6C5,17.46,1,21.3,1,26.11v9.26C1,38,4.37,40.92,7,40.92"/><line class="cls-4" x1="7" y1="25.46" x2="7" y2="58.46"/><line class="cls-4" x1="14" y1="39.46" x2="14" y2="58.46"/></g></g></svg>