<svg xmlns="http://www.w3.org/2000/svg" viewBox="0 0 59.01 58.68"><defs><style>.cls-1{fill:#e7eefa;}.cls-2{fill:#6ac5fe;stroke:#334e6c;}.cls-2,.cls-3{stroke-miterlimit:10;stroke-width:2px;}.cls-3{fill:none;stroke:#e7eefa;}</style></defs><g id="Layer_2" data-name="Layer 2"><g id="Icons"><circle class="cls-1" cx="29.93" cy="29.93" r="14" transform="translate(-8.55 12.3) rotate(-20.39)"/><path class="cls-2" d="M44,39a16.64,16.64,0,0,0-10.08-3.81A23.75,23.75,0,0,0,30.28,39c-1.87-.64-3.91-2.69-5.71-4.88s-3.42-4.59-3.69-6.55a23.55,23.55,0,0,0,4.48-2.84,16.57,16.57,0,0,0-1.78-10.62,20.62,20.62,0,0,0-10.12,1.33c-1.4,4.17-1.87,13.57,5.95,23.47,8.2,9.59,17.64,9.57,22,9C43.6,44.89,44,41,44,39Z"/><path class="cls-3" d="M10.18,8.55h0a28.51,28.51,0,0,1,40.28,1.63c.46.49.88,1,1.29,1.52"/><path class="cls-3" d="M3,19.14A28.51,28.51,0,0,0,21,56.72"/><path class="cls-3" d="M33.81,57.69a28.51,28.51,0,0,0,23.5-34.44"/><path class="cls-3" d="M30.69,6.25h0A23.19,23.19,0,0,1,52.93,30.36c0,.54-.07,1.08-.13,1.61"/></g></g></svg>