<svg xmlns="http://www.w3.org/2000/svg" viewBox="0 0 63 60"><defs><style>.cls-1{fill:#e7eefa;}.cls-2{fill:#6ac5fe;}.cls-2,.cls-3,.cls-4{stroke:#334e6c;stroke-miterlimit:10;stroke-width:2px;}.cls-3{fill:#fff;}.cls-4{fill:none;}</style></defs><g id="Layer_2" data-name="Layer 2"><g id="icons"><circle class="cls-1" cx="32" cy="31" r="29" transform="translate(-12.55 31.71) rotate(-45)"/><path class="cls-2" d="M32,22a26.6,26.6,0,0,0,10-2V17c0-1.62-5.5-4-10-4s-10,2.38-10,4v3A26.6,26.6,0,0,0,32,22Z"/><path class="cls-3" d="M32,1a5,5,0,0,0-5,4.68V9.32a5,5,0,0,0,10,0V5.68A5,5,0,0,0,32,1Z"/><path class="cls-2" d="M32,58a26.6,26.6,0,0,0,10-2V53c0-1.62-5.5-4-10-4s-10,2.38-10,4v3A26.6,26.6,0,0,0,32,58Z"/><path class="cls-3" d="M32,37a5,5,0,0,0-5,4.68v3.64a5,5,0,0,0,10,0V41.68A5,5,0,0,0,32,37Z"/><path class="cls-2" d="M11,58a26.6,26.6,0,0,0,10-2V53c0-1.62-5.5-4-10-4S1,51.38,1,53v3A26.6,26.6,0,0,0,11,58Z"/><path class="cls-3" d="M11,37a5,5,0,0,0-5,4.68v3.64a5,5,0,0,0,10,0V41.68A5,5,0,0,0,11,37Z"/><path class="cls-2" d="M52,58a26.6,26.6,0,0,0,10-2V53c0-1.62-5.5-4-10-4s-10,2.38-10,4v3A26.6,26.6,0,0,0,52,58Z"/><path class="cls-3" d="M52,37a5,5,0,0,0-5,4.68v3.64a5,5,0,0,0,10,0V41.68A5,5,0,0,0,52,37Z"/><line class="cls-4" x1="32" y1="25" x2="32" y2="34"/><polyline class="cls-4" points="52 34 52 29 11 29 11 34"/></g></g></svg>