<svg xmlns="http://www.w3.org/2000/svg" viewBox="0 0 64 63"><defs><style>.cls-1{fill:#e7eefa;}.cls-2{fill:#fff;}.cls-3{fill:#6ac5fe;stroke-linejoin:round;}.cls-3,.cls-4,.cls-5{stroke:#334e6c;}.cls-3,.cls-4{stroke-linecap:round;}.cls-3,.cls-4,.cls-5,.cls-6{stroke-width:2px;}.cls-4,.cls-5,.cls-6{fill:none;stroke-miterlimit:10;}.cls-6{stroke:#e7eefa;}</style></defs><g id="Layer_2" data-name="Layer 2"><g id="icons"><circle class="cls-1" cx="21" cy="21" r="21"/><circle class="cls-2" cx="37" cy="36" r="26"/><circle class="cls-3" cx="37" cy="36" r="8"/><path class="cls-4" d="M17.74,30.58A20.08,20.08,0,0,1,28.22,18"/><path class="cls-4" d="M58.92,22a26,26,0,1,1-7.85-7.87"/><line class="cls-5" x1="36" y1="36" x2="38" y2="36"/><rect class="cls-3" x="41.14" y="45.67" width="12.73" height="5.66" transform="translate(-20.38 47.79) rotate(-45)"/><polyline class="cls-4" points="52 44 55 41 55 8"/><path class="cls-4" d="M21.94,30.59a16,16,0,0,1,6.67-8.22"/><line class="cls-6" x1="15" y1="3" x2="15" y2="5"/><line class="cls-6" x1="15" y1="7" x2="15" y2="9"/><line class="cls-6" x1="14" y1="6" x2="12" y2="6"/><line class="cls-6" x1="18" y1="6" x2="16" y2="6"/><line class="cls-6" x1="6" y1="17" x2="4" y2="19"/><line class="cls-6" x1="11" y1="12" x2="9" y2="14"/><line class="cls-6" x1="9" y1="17" x2="11" y2="19"/><line class="cls-6" x1="4" y1="12" x2="6" y2="14"/><line class="cls-6" x1="11" y1="55" x2="11" y2="57"/><line class="cls-6" x1="11" y1="59" x2="11" y2="61"/><line class="cls-6" x1="10" y1="58" x2="8" y2="58"/><line class="cls-6" x1="14" y1="58" x2="12" y2="58"/></g></g></svg>