<svg xmlns="http://www.w3.org/2000/svg" viewBox="0 0 62 58"><defs><style>.cls-1{fill:#e7eefa;}.cls-2,.cls-6{fill:#fff;}.cls-3{fill:#6ac5fe;}.cls-3,.cls-4,.cls-5,.cls-6{stroke:#334e6c;stroke-width:2px;}.cls-3,.cls-4{stroke-linejoin:round;}.cls-4,.cls-5{fill:none;stroke-linecap:round;}.cls-5,.cls-6{stroke-miterlimit:10;}</style></defs><g id="Layer_2" data-name="Layer 2"><g id="icons"><circle class="cls-1" cx="31" cy="32" r="24"/><path class="cls-2" d="M61,34.17l-8.66-.59L48.9,25l-3.45,8.58-4.45.3V22c0-2-5.5-5-10-5s-10,3-10,5V33.88l-4.45-.3L13.1,25,9.66,33.58,1,34.17l6.53,6.25L5.62,49l7.48-4.36L20.58,49,19,41.88l5.09,4.75L21.73,57,31,51.73,40.27,57,37.91,46.63,43,41.88,41.42,49l7.48-4.36L56.38,49l-1.91-8.58Z"/><polygon class="cls-3" points="31 28 35.27 38.37 46 39.08 37.91 46.63 40.27 57 31 51.73 21.73 57 24.09 46.63 16 39.08 26.73 38.37 31 28"/><polyline class="cls-4" points="20 33.82 16.55 33.58 13.1 25 9.66 33.58 1 34.17 7.53 40.42 5.62 49 13.1 44.64 17.29 47.08"/><polyline class="cls-4" points="42 33.82 45.45 33.58 48.9 25 52.34 33.58 61 34.17 54.47 40.42 56.38 49 48.9 44.64 44.71 47.08"/><path class="cls-5" d="M41,29V22c0-2-5.51-4.89-10-4.89S21,20,21,22v7"/><path class="cls-6" d="M31,1c-2.59,0-5,1.93-5,4.32V8.68C26,11.07,28.41,13,31,13s5-1.93,5-4.32V5.32C36,2.93,33.59,1,31,1Z"/></g></g></svg>