<svg xmlns="http://www.w3.org/2000/svg" viewBox="0 0 58 61"><defs><style>.cls-1{fill:#e7eefa;}.cls-2,.cls-4{fill:none;stroke-width:2px;}.cls-2{stroke:#334e6c;stroke-linecap:round;stroke-linejoin:round;}.cls-3{fill:#6ac5fe;}.cls-4{stroke:#e7eefa;stroke-miterlimit:10;}</style></defs><g id="Layer_2" data-name="Layer 2"><g id="icons"><path class="cls-1" d="M28.5,8A24.5,24.5,0,0,0,19,55.09V51H32V39H45V27h7.37A24.5,24.5,0,0,0,28.5,8Z"/><polyline class="cls-2" points="19 60 19 51 32 51 32 39 45 39 45 27 57 27"/><path class="cls-3" d="M24.7,35.41,16,29V18c0-2.34-1.59-2.75-3.7-3.84A6.15,6.15,0,0,0,7,13.72V29.66A6.44,6.44,0,0,0,8,33.3L1,54H6l6.89-18.08,6.34,2.44L21,46h5Z"/><path class="cls-2" d="M26,46,24.7,35.41,16,29V18c0-2.34-1.59-2.75-3.7-3.84a6.08,6.08,0,0,0-6.23,0,31.65,31.65,0,0,0-3.73,2.5,4,4,0,0,0-1.34,3V28"/><line class="cls-2" x1="6" y1="54" x2="12.89" y2="35.92"/><line class="cls-2" x1="7.96" y1="33.3" x2="1" y2="54"/><circle class="cls-2" cx="15" cy="6" r="5"/><line class="cls-2" x1="16" y1="23" x2="23" y2="27"/><line class="cls-4" x1="49" y1="2" x2="49" y2="8"/><line class="cls-4" x1="46" y1="5" x2="52" y2="5"/><line class="cls-4" x1="36" y1="14" x2="36" y2="20"/><line class="cls-4" x1="33" y1="17" x2="39" y2="17"/><line class="cls-4" x1="47" y1="16" x2="47" y2="22"/><line class="cls-4" x1="44" y1="19" x2="50" y2="19"/><path class="cls-2" d="M7,19V29.66c0,2,.59,4.13,2.66,5l9.57,3.68L21,46"/></g></g></svg>