<svg xmlns="http://www.w3.org/2000/svg" viewBox="0 0 55.71 58"><defs><style>.cls-1{fill:#e7eefa;}.cls-2,.cls-5{fill:#6ac5fe;}.cls-3{fill:#fff;}.cls-4,.cls-6{fill:none;stroke-miterlimit:10;}.cls-4,.cls-5{stroke:#334e6c;stroke-linecap:round;}.cls-4,.cls-5,.cls-6{stroke-width:2px;}.cls-5{stroke-linejoin:round;}.cls-6{stroke:#e7eefa;}</style></defs><g id="Layer_2" data-name="Layer 2"><g id="icons"><circle class="cls-1" cx="28.21" cy="28" r="25.5"/><path class="cls-2" d="M2.53,53.72a2.54,2.54,0,0,0,.37,2.69,2.56,2.56,0,0,0,2.7.37S35.82,45.09,37.79,43.12l.83-.83c1.83-1.84-1.51-8.16-7.48-14.12S18.86,18.86,17,20.69l-.83.83C14.22,23.5,2.53,53.72,2.53,53.72Z"/><path class="cls-3" d="M31.14,28.17c-6-6-12.28-9.31-14.12-7.48s1.52,8.16,7.48,14.12,12.28,9.31,14.12,7.48S37.11,34.13,31.14,28.17Z"/><path class="cls-4" d="M2.53,53.72a2.54,2.54,0,0,0,.37,2.69,2.56,2.56,0,0,0,2.7.37S35.82,45.09,37.79,43.12l.83-.83c1.83-1.84-1.51-8.16-7.48-14.12S18.86,18.86,17,20.69l-.83.83C14.22,23.5,2.53,53.72,2.53,53.72Z"/><path class="cls-4" d="M24.5,34.81c6,6,12.28,9.31,14.12,7.48"/><path class="cls-4" d="M24.5,34.81c-6-6-9.31-12.28-7.48-14.12"/><line class="cls-4" x1="26.71" y1="36.89" x2="26.71" y2="48.32"/><line class="cls-4" x1="20.71" y1="30.54" x2="20.71" y2="50.79"/><line class="cls-4" x1="14.67" y1="24.22" x2="14.67" y2="53.21"/><line class="cls-4" x1="8.8" y1="37.92" x2="8.8" y2="55.53"/><path class="cls-4" d="M34.71,6.55A3.5,3.5,0,1,1,31.21,3,3.51,3.51,0,0,1,34.71,6.55Z"/><path class="cls-4" d="M31.12,36.41c4.55-5.65,11.74-10.61,17.62-7,5,3,3,7.68-.1,8.17s-4.89-2.25-4.6-3.47"/><polygon class="cls-5" points="52.85 13.33 51.66 17.43 54.38 20.82 49.8 21.13 47.5 24.46 45.75 20.67 41.83 19.12 45.18 16.62 45.32 12.04 48.8 14.65 52.85 13.33"/><path class="cls-4" d="M22.24,26.06c3.1-5.9,5.06-15.09-.52-16.66-3.47-1-5.87.88-5.87,3.52s3.23,3.82,4.7,2.35"/><path class="cls-4" d="M37.83,3.76A11.91,11.91,0,0,1,33.24,20"/><line class="cls-6" x1="2.71" y1="20" x2="0.71" y2="22"/><line class="cls-6" x1="7.71" y1="15" x2="5.71" y2="17"/><line class="cls-6" x1="5.71" y1="20" x2="7.71" y2="22"/><line class="cls-6" x1="0.71" y1="15" x2="2.71" y2="17"/><line class="cls-6" x1="52.71" y1="46" x2="52.71" y2="48"/><line class="cls-6" x1="52.71" y1="50" x2="52.71" y2="52"/><line class="cls-6" x1="51.71" y1="49" x2="49.71" y2="49"/><line class="cls-6" x1="55.71" y1="49" x2="53.71" y2="49"/><line class="cls-6" x1="47.71" x2="47.71" y2="2"/><line class="cls-6" x1="47.71" y1="4" x2="47.71" y2="6"/><line class="cls-6" x1="46.71" y1="3" x2="44.71" y2="3"/><line class="cls-6" x1="50.71" y1="3" x2="48.71" y2="3"/></g></g></svg>