<svg xmlns="http://www.w3.org/2000/svg" viewBox="0 0 58.23 63.6"><defs><style>.cls-1,.cls-3{fill:#e7eefa;}.cls-2,.cls-4{fill:#fff;}.cls-2,.cls-3,.cls-5,.cls-6{stroke:#334e6c;stroke-miterlimit:10;stroke-width:2px;}.cls-5{fill:none;}.cls-6{fill:#6ac5fe;}</style></defs><g id="Layer_2" data-name="Layer 2"><g id="icons"><circle class="cls-1" cx="30.23" cy="32" r="28" transform="translate(-7.41 54.82) rotate(-77.86)"/><path class="cls-2" d="M41.9,24l-.22-.23a2.77,2.77,0,0,1-.27-3.84L45.56,16c1.5-1.42,3.65-1.62,4.77-.44l.22.23c1.13,1.19.82,3.32-.68,4.75l-4.15,3.91A2.75,2.75,0,0,1,41.9,24Z"/><path class="cls-2" d="M20.86,29.15l-5.39-2L8.29,49.92c.41.32.82.66,1.2,1A26.37,26.37,0,0,1,13.23,55l7,1c1.54-1.67,2.69-2.75,4-4,10.24.75,15-6.81,16-8S20.86,29.15,20.86,29.15Z"/><path class="cls-3" d="M41.23,45h-18a4,4,0,0,1-4-4c0-8.37,0-27.65,0-36a4,4,0,0,1,4-4h18a4,4,0,0,1,4,4c0,8.37,0,27.65,0,36A4,4,0,0,1,41.23,45Z"/><rect class="cls-2" x="19.23" y="7" width="26" height="30"/><path class="cls-2" d="M44.66,44.11l-.22-.19c-1.12-1-1.54-2.35-.93-3.06l2.62-3a2.69,2.69,0,0,1,3.77-.22l.22.19a2.68,2.68,0,0,1,.33,3.76l-2.62,3C47.22,45.29,45.79,45.08,44.66,44.11Z"/><path class="cls-4" d="M19.78,29a36,36,0,0,0,1.8-9A7.76,7.76,0,0,0,20,14.75a2.19,2.19,0,0,0-3.74.47c-2,6.57-2.44,8.36-3.71,11.66-1.42,3.69-.61,8.87-1.31,10.38-.14.31-4.92,6.45-6.23,8.31,1.4.71,4.35,2,5.5,3a26.92,26.92,0,0,1,3.88,4.23l1.09.09,6.34-6.53C24.51,38.61,22.25,32.07,19.78,29Z"/><path class="cls-5" d="M21.78,46.4c2.73-7.79.47-14.33-2-17.44a36,36,0,0,0,1.8-9A7.76,7.76,0,0,0,20,14.75a2.19,2.19,0,0,0-3.74.47c-2,6.57-2.44,8.36-3.71,11.66-1.42,3.69-.61,8.87-1.31,10.38-.14.31-4.92,6.45-6.23,8.31,1.4.71,4.35,2,5.5,3a26.92,26.92,0,0,1,3.88,4.23l1.09.09"/><rect class="cls-6" x="7.98" y="40.89" width="7.67" height="21.77" transform="translate(-33.14 23.51) rotate(-44.98)"/><path class="cls-2" d="M44.68,37.09l-.22-.19c-1.15-1-1.57-2.39-1-3.12l2.67-3.06A2.71,2.71,0,0,1,50,30.49l.22.19a2.73,2.73,0,0,1,.34,3.83l-2.66,3.06C47.28,38.3,45.83,38.08,44.68,37.09Z"/><path class="cls-2" d="M44.68,30.28l-.22-.19c-1.15-1-1.57-2.39-1-3.12l2.66-3.06A2.73,2.73,0,0,1,50,23.68l.22.19a2.73,2.73,0,0,1,.34,3.83L47.9,30.76C47.28,31.49,45.83,31.27,44.68,30.28Z"/><line class="cls-5" x1="29.23" y1="41" x2="35.23" y2="41"/></g></g></svg>