<svg xmlns="http://www.w3.org/2000/svg" viewBox="0 0 63 59"><defs><style>.cls-1{fill:#e7eefa;}.cls-2{fill:#fff;}.cls-3{fill:#6ac5fe;}.cls-3,.cls-4{stroke:#334e6c;stroke-miterlimit:10;stroke-width:2px;}.cls-4{fill:none;}</style></defs><g id="Layer_2" data-name="Layer 2"><g id="icons"><circle class="cls-1" cx="25.5" cy="33.5" r="25.5" transform="translate(-16.24 27.96) rotate(-45.16)"/><path class="cls-2" d="M54,17V5a4,4,0,0,0-4-4H25a4,4,0,0,0-4,4v5H7a4,4,0,0,0-4,4V32a4,4,0,0,0,4,4h4v6.53a1,1,0,0,0,1.72.69l7-7.22H27v3a4,4,0,0,0,4,4H46.3l7,7.22A1,1,0,0,0,55,49.53V43h3a4,4,0,0,0,4-4V21a4,4,0,0,0-4-4Z"/><path class="cls-3" d="M7,10H31a4,4,0,0,1,4,4V32a4,4,0,0,1-4,4H19.7l-7,7.22A1,1,0,0,1,11,42.53V36H7a4,4,0,0,1-4-4V14A4,4,0,0,1,7,10Z"/><path class="cls-4" d="M21,13v9a4,4,0,0,0,4,4h7"/><path class="cls-4" d="M54,17V5a4,4,0,0,0-4-4H25a4,4,0,0,0-4,4v5"/><path class="cls-4" d="M35,26h5l6.26,7A1,1,0,0,0,48,32.39L48,26h2a4,4,0,0,0,4-4V20"/><path class="cls-4" d="M27,36v3a4,4,0,0,0,4,4H46.3l7,7.22A1,1,0,0,0,55,49.53V43h3a4,4,0,0,0,4-4V21a4,4,0,0,0-4-4H35"/><line class="cls-4" x1="27" y1="26" x2="27" y2="33"/><path class="cls-4" d="M32,17H31a4,4,0,0,0-4,4v2"/></g></g></svg>