<svg xmlns="http://www.w3.org/2000/svg" viewBox="0 0 54 59"><defs><style>.cls-1{fill:#e7eefa;}.cls-2{fill:#6ac5fe;}.cls-3,.cls-4{fill:#fff;}.cls-4,.cls-5{stroke:#334e6c;stroke-miterlimit:10;stroke-width:2px;}.cls-5{fill:none;}</style></defs><g id="Layer_2" data-name="Layer 2"><g id="icons"><circle class="cls-1" cx="26.5" cy="23.5" r="23.5" transform="translate(-8.85 25.74) rotate(-45.2)"/><path class="cls-2" d="M6,59V41c-2.23,0-5-2.77-5-5V26c0-2.65,3.58-6,7-6h8a7.3,7.3,0,0,1,7,7v9c0,2.23-2.77,5-5,5V59Z"/><path class="cls-3" d="M36,59V41c-2,0-5-2.77-5-5V26c0-2.65,3.58-6,7-6h8a7.3,7.3,0,0,1,7,7v9c0,2.23-3,5-5,5V59Z"/><path class="cls-4" d="M12,16.69a5,5,0,0,0,5-4.89V10.19a5,5,0,0,0-10,0V11.8A5,5,0,0,0,12,16.69Z"/><path class="cls-5" d="M6,41c-2.23,0-5-2.77-5-5V27a7.3,7.3,0,0,1,7-7h8c3.42,0,7,4.35,7,7"/><line class="cls-5" x1="6" y1="59" x2="6" y2="27"/><path class="cls-5" d="M23,33v3c0,2.23-2.77,5-5,5V59"/><line class="cls-5" x1="12" y1="41" x2="12" y2="59"/><line class="cls-5" x1="22" y1="30" x2="12" y2="30"/><line class="cls-5" x1="26" y1="30" x2="24" y2="30"/><path class="cls-4" d="M42,16.69a5,5,0,0,1-5-4.89V10.19a5,5,0,0,1,10,0V11.8A5,5,0,0,1,42,16.69Z"/><path class="cls-5" d="M48,41c2.23,0,5-2.77,5-5V27a7.3,7.3,0,0,0-7-7H38c-3.42,0-7,4.35-7,7"/><line class="cls-5" x1="48" y1="59" x2="48" y2="27"/><path class="cls-5" d="M31,33v3c0,2.23,3,5,5,5V59"/><line class="cls-5" x1="42" y1="41" x2="42" y2="59"/><line class="cls-5" x1="32" y1="30" x2="42" y2="30"/><polyline class="cls-5" points="38 35 43 30 38 25"/><polyline class="cls-5" points="16 35 11 30 16 25"/><line class="cls-5" x1="28" y1="30" x2="30" y2="30"/></g></g></svg>