<svg xmlns="http://www.w3.org/2000/svg" viewBox="0 0 58 60"><defs><style>.cls-1{fill:#e7eefa;}.cls-2{fill:#6ac5fe;}.cls-2,.cls-3,.cls-4,.cls-5{stroke:#334e6c;stroke-linecap:round;stroke-width:2px;}.cls-2,.cls-3,.cls-4{stroke-miterlimit:10;}.cls-3,.cls-5{fill:none;}.cls-4{fill:#fff;}.cls-5{stroke-linejoin:round;}</style></defs><g id="Layer_2" data-name="Layer 2"><g id="icons"><circle class="cls-1" cx="30" cy="31" r="28" transform="translate(-6.65 53.75) rotate(-77.76)"/><circle class="cls-2" cx="14.5" cy="14.5" r="13.5"/><line class="cls-3" x1="11" y1="9" x2="11" y2="13"/><line class="cls-3" x1="18" y1="9" x2="18" y2="13"/><path class="cls-3" d="M20.52,17A6.6,6.6,0,0,1,8.39,17"/><circle class="cls-4" cx="14.5" cy="45.5" r="13.5"/><line class="cls-3" x1="11" y1="40" x2="11" y2="44"/><line class="cls-3" x1="18" y1="40" x2="18" y2="44"/><path class="cls-3" d="M19.19,51a6.61,6.61,0,0,0-9.47,0"/><line class="cls-5" x1="34" y1="10" x2="51" y2="10"/><line class="cls-5" x1="34" y1="14" x2="51" y2="14"/><line class="cls-5" x1="34" y1="18" x2="43" y2="18"/><line class="cls-5" x1="34" y1="41" x2="51" y2="41"/><line class="cls-5" x1="34" y1="45" x2="51" y2="45"/><line class="cls-5" x1="34" y1="49" x2="43" y2="49"/></g></g></svg>