<svg xmlns="http://www.w3.org/2000/svg" viewBox="0 0 62 51.98"><defs><style>.cls-1{fill:#e7eefa;}.cls-2,.cls-4{fill:none;}.cls-2,.cls-3{stroke:#334e6c;}.cls-2,.cls-3,.cls-4{stroke-miterlimit:10;stroke-width:2px;}.cls-3{fill:#6ac5fe;}.cls-4{stroke:#e7eefa;}</style></defs><g id="Layer_2" data-name="Layer 2"><g id="icons"><circle class="cls-1" cx="25" cy="26.98" r="20"/><line class="cls-2" x1="42.87" y1="23.71" x2="54.13" y2="5.11"/><line class="cls-2" x1="31.62" y1="8.42" x2="42.87" y2="23.71"/><line class="cls-2" x1="21" y1="34.98" x2="31.62" y2="8.42"/><line class="cls-2" x1="9" y1="22.98" x2="21" y2="34.98"/><path class="cls-3" d="M13.21,22.86a4.11,4.11,0,1,1-4.1-4.11A4.1,4.1,0,0,1,13.21,22.86Z"/><path class="cls-3" d="M35.72,8.42a4.11,4.11,0,1,1-4.1-4.11A4.1,4.1,0,0,1,35.72,8.42Z"/><path class="cls-3" d="M25,35a4.11,4.11,0,1,1-4.11-4.1A4.11,4.11,0,0,1,25,35Z"/><path class="cls-3" d="M47,23.71a4.11,4.11,0,1,1-4.11-4.11A4.11,4.11,0,0,1,47,23.71Z"/><path class="cls-3" d="M58.23,5.11A4.11,4.11,0,1,1,54.13,1,4.1,4.1,0,0,1,58.23,5.11Z"/><line class="cls-2" x1="55" y1="50.98" x2="57" y2="50.98"/><line class="cls-2" x1="59" y1="50.98" x2="61" y2="50.98"/><line class="cls-2" y1="50.98" x2="4" y2="50.98"/><line class="cls-2" x1="53" y1="50.98" x2="6" y2="50.98"/><line class="cls-4" x1="59" y1="36.98" x2="59" y2="42.98"/><line class="cls-4" x1="62" y1="39.98" x2="56" y2="39.98"/><line class="cls-4" x1="48" y1="39.98" x2="48" y2="45.98"/><line class="cls-4" x1="51" y1="42.98" x2="45" y2="42.98"/><line class="cls-4" x1="54" y1="26.98" x2="54" y2="32.98"/><line class="cls-4" x1="57" y1="29.98" x2="51" y2="29.98"/></g></g></svg>