<svg xmlns="http://www.w3.org/2000/svg" viewBox="0 0 57 61"><defs><style>.cls-1{fill:#e7eefa;}.cls-2{fill:#fff;}.cls-2,.cls-3{stroke:#334e6c;stroke-miterlimit:10;stroke-width:2px;}.cls-3{fill:none;}.cls-4{fill:#6ac5fe;}</style></defs><g id="Layer_2" data-name="Layer 2"><g id="icons"><circle class="cls-1" cx="27" cy="27" r="27" transform="translate(-5.06 47.74) rotate(-77.89)"/><circle class="cls-2" cx="51" cy="17" r="5"/><circle class="cls-2" cx="51" cy="34" r="5"/><circle class="cls-2" cx="51" cy="51" r="5"/><line class="cls-3" x1="46" y1="34" x2="33" y2="34"/><path class="cls-3" d="M46,51H40a1,1,0,0,1-1-1V18a1,1,0,0,1,1-1h6"/><path class="cls-4" d="M19,20c-3.74,0-11,2.05-11,6V38.09A3.78,3.78,0,0,0,12,42h1V61H25V42h1a3.78,3.78,0,0,0,4-3.91V26C30,22.05,22.75,20,19,20Z"/><path class="cls-3" d="M13,42H12a3.85,3.85,0,0,1-4-4V26c0-3.95,7.26-6,11-6s11,2.05,11,6V38a3.85,3.85,0,0,1-4,4H25"/><path class="cls-2" d="M19,17a5,5,0,0,0,5-5.1v-1.7a5,5,0,1,0-10,0v1.7A5,5,0,0,0,19,17Z"/><line class="cls-3" x1="25" y1="61" x2="25" y2="28"/><line class="cls-3" x1="13" y1="28" x2="13" y2="61"/><line class="cls-3" x1="20" y1="41" x2="20" y2="61"/><rect class="cls-2" x="2" y="41" width="14" height="11"/></g></g></svg>