<svg xmlns="http://www.w3.org/2000/svg" viewBox="0 0 58.94 59"><defs><style>.cls-1{fill:#fff;}.cls-2,.cls-4{fill:none;}.cls-2,.cls-5{stroke:#334e6c;}.cls-2,.cls-4,.cls-5{stroke-miterlimit:10;stroke-width:2px;}.cls-3{fill:#e7eefa;}.cls-4{stroke:#e7eefa;}.cls-5{fill:#6ac5fe;}</style></defs><g id="Layer_2" data-name="Layer 2"><g id="icons"><circle class="cls-1" cx="32.5" cy="31" r="20.5"/><path class="cls-2" d="M12,30a21.11,21.11,0,0,1,.87-5"/><path class="cls-2" d="M13.23,38a19.87,19.87,0,0,1-1.13-5"/><path class="cls-2" d="M14.08,22a20.5,20.5,0,1,1,.52,19"/><path class="cls-2" d="M21.94,20A15.25,15.25,0,1,1,22,42.06"/><circle class="cls-3" cx="32" cy="31" r="11"/><line class="cls-4" x1="22" y1="4" x2="16" y2="4"/><path class="cls-4" d="M58,21.74A26.87,26.87,0,0,0,47.26,8.24,26.35,26.35,0,0,0,42,5.62"/><path class="cls-4" d="M54.94,47.25A26.71,26.71,0,0,1,33.5,58H20"/><polyline class="cls-2" points="30 8 30 5 35 5 35 8"/><rect class="cls-5" x="27" y="1" width="11" height="4"/><line class="cls-2" x1="5" y1="22" x2="19" y2="22"/><line class="cls-2" y1="30" x2="16" y2="30"/><line class="cls-2" x1="4" y1="38" x2="18" y2="38"/><line class="cls-2" x1="34.79" y1="28.59" x2="41" y2="22"/><line class="cls-4" x1="18" y1="58" x2="14" y2="58"/><line class="cls-4" x1="12" y1="58" x2="10" y2="58"/><line class="cls-4" x1="14" y1="4" x2="10" y2="4"/><line class="cls-4" x1="8" y1="4" x2="6" y2="4"/><circle class="cls-5" cx="32.5" cy="31" r="2.75"/><line class="cls-2" x1="18.24" y1="11.13" x2="14.56" y2="14.81"/><line class="cls-2" x1="16.4" y1="12.97" x2="19" y2="15.57"/></g></g></svg>