<svg xmlns="http://www.w3.org/2000/svg" viewBox="0 0 58 58"><defs><style>.cls-1{fill:#e7eefa;}.cls-2{fill:none;}.cls-2,.cls-3{stroke:#334e6c;stroke-miterlimit:10;stroke-width:2px;}.cls-3{fill:#6ac5fe;}</style></defs><g id="Layer_2" data-name="Layer 2"><g id="icons"><path class="cls-1" d="M36,27.5A7.5,7.5,0,1,1,28.5,20,7.5,7.5,0,0,1,36,27.5Z"/><circle class="cls-2" cx="29" cy="28" r="18" transform="translate(-2.68 3.08) rotate(-5.81)"/><path class="cls-2" d="M8.14,18.3C16.23.92,41.77.92,49.86,18.3"/><path class="cls-2" d="M2,28A27,27,0,1,1,29,55"/><path class="cls-2" d="M38,28c0,9.94-4,18-9,18s-9-8.06-9-18,4-18,9-18S38,18.06,38,28Z"/><line class="cls-2" x1="29" y1="10" x2="29" y2="46"/><line class="cls-2" x1="13" y1="20" x2="45" y2="20"/><line class="cls-2" x1="13" y1="36" x2="45" y2="36"/><path class="cls-3" d="M4,22H7a0,0,0,0,1,0,0V35a0,0,0,0,1,0,0H4a3,3,0,0,1-3-3V25A3,3,0,0,1,4,22Z"/><path class="cls-3" d="M51,22h3a3,3,0,0,1,3,3v7a3,3,0,0,1-3,3H51a0,0,0,0,1,0,0V22A0,0,0,0,1,51,22Z"/><path class="cls-3" d="M35,54.5A2.5,2.5,0,0,1,32.5,57h-7A2.5,2.5,0,0,1,23,54.5h0A2.5,2.5,0,0,1,25.5,52h7A2.5,2.5,0,0,1,35,54.5Z"/></g></g></svg>