<svg xmlns="http://www.w3.org/2000/svg" viewBox="0 0 64 63"><defs><style>.cls-1{fill:#e7eefa;}.cls-2{fill:none;stroke:#334e6c;stroke-linecap:round;stroke-miterlimit:10;stroke-width:2px;}.cls-3{fill:#6ac5fe;}</style></defs><g id="Layer_2" data-name="Layer 2"><g id="icons"><circle class="cls-1" cx="21" cy="21" r="21"/><path class="cls-2" d="M58.92,22a26,26,0,1,1-7.85-7.87"/><path class="cls-3" d="M29.68,58.39c.16.07.22.11.29.13a23.2,23.2,0,0,0,11.1.67A23.24,23.24,0,0,0,58.13,46.63a23.26,23.26,0,0,0,1.26-19c-.13-.37-.33-.39-.65-.39h-12c-.14,0-.27,0-.49,0l.37.48a12.59,12.59,0,0,1-1.58,17.58q-5.64,4.74-11.24,9.52Zm5.63-10.18-.6-.12a12.52,12.52,0,0,1-7.9-4.93,16.15,16.15,0,0,1-2.24-4.88c-1.45-4.41-3-8.81-4.45-13.21-.51-1.49-1-3-1.53-4.49-.07.05-.1.06-.12.09a23.29,23.29,0,0,0-4.81,20.08A23.26,23.26,0,0,0,25,56.37a.55.55,0,0,0,.79-.06c2.16-1.86,4.34-3.71,6.51-5.56ZM57.19,23.15c-.14-.23-.21-.37-.3-.51a23.08,23.08,0,0,0-4.09-4.73,23.83,23.83,0,0,0-30.48-1,.77.77,0,0,0-.33,1c1.14,3.27,2.24,6.56,3.35,9.85.2.57.39,1.15.62,1.81l.5-.76a12.05,12.05,0,0,1,10.11-5.64c6.63-.09,13.25,0,19.87,0ZM45.46,35.75A8.5,8.5,0,1,0,37,44.21,8.55,8.55,0,0,0,45.46,35.75Z"/><path class="cls-3" d="M45.46,35.75a8.5,8.5,0,1,1-8.38-8.53A8.53,8.53,0,0,1,45.46,35.75Z"/></g></g></svg>