<svg xmlns="http://www.w3.org/2000/svg" viewBox="0 0 58 56"><defs><style>.cls-1{fill:#6ac5fe;}.cls-2{fill:#e7eefa;}.cls-3{fill:none;}.cls-3,.cls-4{stroke:#334e6c;stroke-miterlimit:10;stroke-width:2px;}.cls-4{fill:#fff;}</style></defs><g id="Layer_2" data-name="Layer 2"><g id="icons"><path class="cls-1" d="M29,30c-3.75,0-11,2-11,6V48.08A3.79,3.79,0,0,0,22,52h1v4H35V52h1a3.79,3.79,0,0,0,4-3.92V36C40,32,32.75,30,29,30Z"/><path class="cls-2" d="M29.12,1A27.12,27.12,0,0,0,2.46,33.09C4.77,31,9.3,30,12,30H46c2.79,0,7.5,1.09,9.74,3.27A27.09,27.09,0,0,0,29.12,1Z"/><path class="cls-3" d="M36,52.08a3.85,3.85,0,0,0,4-4V36c0-4-7.25-6-11-6s-11,2-11,6V48.08a3.85,3.85,0,0,0,4,4"/><path class="cls-4" d="M29,27a5,5,0,0,0,5-5.1V20.18a5,5,0,1,0-10,0v1.71A5,5,0,0,0,29,27Z"/><path class="cls-4" d="M21,12.91A5,5,0,0,0,26,7.8V6.1a5,5,0,1,0-10,0V7.8A5,5,0,0,0,21,12.91Z"/><path class="cls-4" d="M37,12.91A5,5,0,0,0,42,7.8V6.1a5,5,0,1,0-10,0V7.8A5,5,0,0,0,37,12.91Z"/><line class="cls-3" x1="35" y1="56" x2="35" y2="40"/><line class="cls-3" x1="23" y1="40" x2="23" y2="56"/><line class="cls-3" x1="6" y1="56" x2="6" y2="40"/><path class="cls-4" d="M12,26.91A5,5,0,0,1,7,21.8V20.1a5,5,0,1,1,10,0v1.7A5,5,0,0,1,12,26.91Z"/><path class="cls-3" d="M18,31.15A18.78,18.78,0,0,0,12,30C8.25,30,1,32,1,36V48.08a3.85,3.85,0,0,0,4,4"/><line class="cls-3" x1="52" y1="56" x2="52" y2="40"/><path class="cls-4" d="M46,26.91a5,5,0,0,0,5-5.11V20.1a5,5,0,1,0-10,0v1.7A5,5,0,0,0,46,26.91Z"/><path class="cls-3" d="M40,31.15A18.78,18.78,0,0,1,46,30c3.75,0,11,2,11,6V48.08a3.85,3.85,0,0,1-4,4"/></g></g></svg>