<svg xmlns="http://www.w3.org/2000/svg" viewBox="0 0 56.71 57"><defs><style>.cls-1{fill:#e7eefa;}.cls-2{fill:#fff;}.cls-3,.cls-5,.cls-7{fill:none;}.cls-3,.cls-5,.cls-6{stroke:#334e6c;}.cls-3,.cls-6{stroke-linejoin:round;}.cls-3,.cls-5,.cls-6,.cls-7{stroke-width:2px;}.cls-4,.cls-6{fill:#6ac5fe;}.cls-5{stroke-linecap:round;}.cls-5,.cls-7{stroke-miterlimit:10;}.cls-7{stroke:#e7eefa;}</style></defs><g id="Layer_2" data-name="Layer 2"><g id="icons"><circle class="cls-1" cx="30.71" cy="30" r="26"/><circle class="cls-2" cx="35.71" cy="17" r="16"/><path class="cls-3" d="M35.71,17v6.44a3.48,3.48,0,0,0-2.13-1.06,3.19,3.19,0,0,0,0,6.37,3.43,3.43,0,0,0,2.13-1.06v2.78"/><path class="cls-3" d="M51.71,17H46.4a3.38,3.38,0,0,1,1.06,2.12,3.19,3.19,0,1,1-6.37,0A3.38,3.38,0,0,1,42.15,17H35.71"/><path class="cls-4" d="M19.71,17h6.44a3.38,3.38,0,0,1-1.06-2.12,3.19,3.19,0,1,1,6.37,0A3.38,3.38,0,0,1,30.4,17h5.31V11.69a3.38,3.38,0,0,0,2.12,1.06,3.19,3.19,0,1,0,0-6.37,3.43,3.43,0,0,0-2.12,1.06V1A16,16,0,0,0,19.71,17Z"/><path class="cls-3" d="M35.71,17V11.69a3.38,3.38,0,0,0,2.12,1.06,3.19,3.19,0,1,0,0-6.37,3.43,3.43,0,0,0-2.12,1.06V1"/><path class="cls-3" d="M19.71,17h6.44a3.38,3.38,0,0,1-1.06-2.12,3.19,3.19,0,1,1,6.37,0A3.38,3.38,0,0,1,30.4,17h5.31"/><path class="cls-3" d="M24,27.91a16,16,0,1,1,26.41-4.58"/><path class="cls-2" d="M45.48,31.32l-5.89,2.79-.32.12A2.31,2.31,0,0,0,37.16,33h-6c-1.38,0-3.47-2-5.13-2H20.16c-2.42,0-4.58,2-5.8,3.11L8.71,39.79,17.9,49c1.5-1.5,3.27-3,4.81-3h12a7.1,7.1,0,0,0,5.06-1.9l9.95-10,2.83-7.07C50.82,25.36,46.89,27.2,45.48,31.32Z"/><path class="cls-5" d="M26.71,39H37.16c1.65,0,2.55-1.3,2.55-3v0c0-1.66-.9-3-2.55-3h-6c-1.38,0-3.47-2-5.13-2H20.16c-2.42,0-4.58,2-5.8,3.11L8.71,39.79,17.9,49c1.5-1.5,3.27-3,4.81-3h12a7.1,7.1,0,0,0,5.06-1.9l9.95-10,2.83-7.07c-1.73-1.72-5.66.12-7.07,4.24l-5.89,2.79"/><rect class="cls-6" x="6.96" y="37.31" width="8.49" height="18.38" transform="translate(-29.6 21.54) rotate(-45)"/><line class="cls-5" x1="9.29" y1="44.5" x2="7.29" y2="42.5"/><line class="cls-7" x1="11.71" y1="18" x2="11.71" y2="20"/><line class="cls-7" x1="11.71" y1="22" x2="11.71" y2="24"/><line class="cls-7" x1="12.71" y1="21" x2="14.71" y2="21"/><line class="cls-7" x1="8.71" y1="21" x2="10.71" y2="21"/><line class="cls-7" x1="5.71" y1="13" x2="7.71" y2="15"/><line class="cls-7" x1="0.71" y1="8" x2="2.71" y2="10"/><line class="cls-7" x1="2.71" y1="13" x2="0.71" y2="15"/><line class="cls-7" x1="7.71" y1="8" x2="5.71" y2="10"/></g></g></svg>