<svg xmlns="http://www.w3.org/2000/svg" viewBox="0 0 63 64"><defs><style>.cls-1{fill:#e7eefa;}.cls-2,.cls-3{fill:none;stroke-miterlimit:10;stroke-width:2px;}.cls-2{stroke:#334e6c;}.cls-3{stroke:#e7eefa;}.cls-4{fill:#6ac5fe;}</style></defs><g id="Layer_2" data-name="Layer 2"><g id="icons"><circle class="cls-1" cx="31" cy="31" r="24"/><line class="cls-2" x1="31" x2="31" y2="14"/><line class="cls-2" x1="15.29" y1="3.37" x2="22.56" y2="15.96"/><line class="cls-2" x1="3.74" y1="15.08" x2="16.33" y2="22.35"/><line class="cls-2" y1="31" x2="14" y2="31"/><line class="cls-2" x1="3.96" y1="46.86" x2="16.55" y2="39.59"/><line class="cls-2" x1="59" y1="46.48" x2="46.41" y2="39.21"/><line class="cls-2" x1="63" y1="31" x2="49" y2="31"/><line class="cls-2" x1="58.78" y1="14.7" x2="46.19" y2="21.97"/><line class="cls-2" x1="47.07" y1="3.15" x2="39.8" y2="15.74"/><line class="cls-3" x1="26" y1="11.59" x2="26.7" y2="14.19"/><line class="cls-3" x1="17.13" y1="16.84" x2="19.03" y2="18.75"/><line class="cls-3" x1="12.07" y1="25.83" x2="14.66" y2="26.53"/><line class="cls-3" x1="12.18" y1="36.15" x2="14.78" y2="35.45"/><line class="cls-3" x1="17.43" y1="45.03" x2="19.34" y2="43.13"/><line class="cls-3" x1="45.62" y1="44.72" x2="43.72" y2="42.82"/><line class="cls-3" x1="50.68" y1="35.73" x2="48.08" y2="35.03"/><line class="cls-3" x1="50.56" y1="25.41" x2="47.97" y2="26.11"/><line class="cls-3" x1="45.31" y1="16.53" x2="43.41" y2="18.44"/><line class="cls-3" x1="36.32" y1="11.48" x2="35.62" y2="14.07"/><path class="cls-4" d="M32.19,17a14.48,14.48,0,0,0-11,24.69A9.23,9.23,0,0,1,24,48.21V50H39V48.2a8.91,8.91,0,0,1,2.64-6.36A14.43,14.43,0,0,0,46,31.52,14.62,14.62,0,0,0,32.19,17Z"/><path class="cls-2" d="M39,50V48.2a8.91,8.91,0,0,1,2.64-6.36A14.43,14.43,0,0,0,46,31.52a14.5,14.5,0,1,0-29,0,14.41,14.41,0,0,0,4.23,10.21A9.23,9.23,0,0,1,24,48.21V50"/><path class="cls-2" d="M21.83,27A10,10,0,0,1,29,21.2"/><path class="cls-2" d="M21,31a10.2,10.2,0,0,1,.2-2"/><polyline class="cls-2" points="37 61 35 61 33 63 30 63 28 61 26 61"/><line class="cls-2" x1="23" y1="53" x2="40" y2="53"/><line class="cls-2" x1="23" y1="57" x2="40" y2="57"/><path class="cls-2" d="M34,44V35.16a1.92,1.92,0,0,1,1.92-1.92,1.88,1.88,0,1,1,0,3.76H27.08a1.89,1.89,0,1,1,0-3.78A1.94,1.94,0,0,1,29,35.16V44"/></g></g></svg>