<svg xmlns="http://www.w3.org/2000/svg" viewBox="0 0 63 64"><defs><style>.cls-1{fill:#e7eefa;}.cls-2,.cls-6{fill:#fff;}.cls-3{fill:#6ac5fe;}.cls-4,.cls-5,.cls-7,.cls-8{fill:none;}.cls-4,.cls-5,.cls-6,.cls-7{stroke:#334e6c;}.cls-4,.cls-5,.cls-6{stroke-linecap:round;}.cls-4,.cls-6{stroke-linejoin:round;}.cls-4,.cls-5,.cls-6,.cls-7,.cls-8{stroke-width:2px;}.cls-5,.cls-7,.cls-8{stroke-miterlimit:10;}.cls-8{stroke:#e7eefa;}</style></defs><g id="Layer_2" data-name="Layer 2"><g id="icons"><circle class="cls-1" cx="23" cy="23" r="23"/><polygon class="cls-2" points="6 25 6 26 14 33 14 21.21 6 25"/><path class="cls-2" d="M47,5H20a1,1,0,0,0-1,1v4H15a1,1,0,0,0-1,1V33l19,9,15-7.11V6A1,1,0,0,0,47,5Z"/><polygon class="cls-3" points="14 42 14 54 33 63 52 54 52 42 14 42"/><polyline class="cls-4" points="52 45 52 54 33 63 14 54 14 45"/><line class="cls-5" x1="33" y1="43" x2="33" y2="63"/><polygon class="cls-6" points="6 41 25 50 33 43 33 42 14 33 6 40 6 41"/><polygon class="cls-6" points="60 41 41 50 33 43 33 42 52 33 60 40 60 41"/><polyline class="cls-4" points="14 33 6 26 6 25 10.55 22.85"/><polyline class="cls-6" points="46.5 30.39 52 33 60 26 60 25 52.39 21.4"/><path class="cls-7" d="M19,8V6a1,1,0,0,1,1-1H47a1,1,0,0,1,1,1V17"/><path class="cls-7" d="M14,33V11a1,1,0,0,1,1-1H42a1,1,0,0,1,1,1V29"/><line class="cls-7" x1="16" y1="16" x2="41" y2="16"/><line class="cls-7" x1="17" y1="13" x2="19" y2="13"/><line class="cls-7" x1="21" y1="13" x2="23" y2="13"/><line class="cls-7" x1="25" y1="13" x2="27" y2="13"/><line class="cls-7" x1="43" y1="31" x2="43" y2="33"/><line class="cls-7" x1="48" y1="23" x2="48" y2="25"/><line class="cls-7" x1="48" y1="19" x2="48" y2="21"/><line class="cls-8" x1="55" x2="55" y2="2"/><line class="cls-8" x1="55" y1="4" x2="55" y2="6"/><line class="cls-8" x1="54" y1="3" x2="52" y2="3"/><line class="cls-8" x1="58" y1="3" x2="56" y2="3"/><line class="cls-8" x1="3" y1="6" x2="3" y2="8"/><line class="cls-8" x1="3" y1="10" x2="3" y2="12"/><line class="cls-8" x1="2" y1="9" y2="9"/><line class="cls-8" x1="6" y1="9" x2="4" y2="9"/><line class="cls-8" x1="60" y1="11" x2="60" y2="13"/><line class="cls-8" x1="60" y1="15" x2="60" y2="17"/><line class="cls-8" x1="59" y1="14" x2="57" y2="14"/><line class="cls-8" x1="63" y1="14" x2="61" y2="14"/></g></g></svg>