<svg xmlns="http://www.w3.org/2000/svg" viewBox="0 0 58.71 62.57"><defs><style>.cls-1{fill:#e7eefa;}.cls-2{fill:#6ac5fe;}.cls-3{fill:#fff;}.cls-4,.cls-5{fill:none;stroke-miterlimit:10;stroke-width:2px;}.cls-4{stroke:#334e6c;stroke-linecap:round;}.cls-5{stroke:#e7eefa;}</style></defs><g id="Layer_2" data-name="Layer 2"><g id="icons"><circle class="cls-1" cx="29.71" cy="29" r="29"/><path class="cls-2" d="M21.5,21.07,6.07,38a5,5,0,0,0,7,7L29.37,30Z"/><path class="cls-3" d="M41.24,27.51c-4.42,4.42-11.76,4.23-16.41-.42s-4.83-12-.42-16.4,11.76-4.23,16.4.42S45.65,23.1,41.24,27.51Z"/><path class="cls-2" d="M29.32,22.6c-4.64-4.65-6.84-10-4.91-11.91-4.41,4.41-4.22,11.76.42,16.4s12,4.84,16.41.42C39.3,29.44,34,27.24,29.32,22.6Z"/><path class="cls-4" d="M41.24,27.51c-4.42,4.42-11.76,4.23-16.41-.42s-4.83-12-.42-16.4,11.76-4.23,16.4.42S45.65,23.1,41.24,27.51Z"/><path class="cls-4" d="M41.24,27.51C39.3,29.44,34,27.24,29.32,22.6s-6.84-10-4.91-11.91"/><path class="cls-4" d="M29.37,30,13.08,45a5,5,0,0,1-6.86-.14h0A5,5,0,0,1,6.07,38L21.5,21.07"/><path class="cls-4" d="M6.22,44.84,2.81,48.46a5.57,5.57,0,0,0,.81,8.35h0a5.57,5.57,0,0,0,6.8-.25l23-19.14a4.86,4.86,0,0,1,6.24-.13h0a4.86,4.86,0,0,1-.37,7.86C35,48,17.5,61.57,17.5,61.57"/><line class="cls-5" x1="11.71" y1="8" x2="11.71" y2="10"/><line class="cls-5" x1="11.71" y1="12" x2="11.71" y2="14"/><line class="cls-5" x1="10.71" y1="11" x2="8.71" y2="11"/><line class="cls-5" x1="14.71" y1="11" x2="12.71" y2="11"/><line class="cls-5" x1="2.71" y1="22" x2="0.71" y2="24"/><line class="cls-5" x1="7.71" y1="17" x2="5.71" y2="19"/><line class="cls-5" x1="5.71" y1="22" x2="7.71" y2="24"/><line class="cls-5" x1="0.71" y1="17" x2="2.71" y2="19"/><line class="cls-5" x1="49.71" y1="30" x2="49.71" y2="32"/><line class="cls-5" x1="49.71" y1="34" x2="49.71" y2="36"/><line class="cls-5" x1="48.71" y1="33" x2="46.71" y2="33"/><line class="cls-5" x1="52.71" y1="33" x2="50.71" y2="33"/></g></g></svg>