<svg xmlns="http://www.w3.org/2000/svg" viewBox="0 0 59.71 63"><defs><style>.cls-1{fill:#e7eefa;}.cls-2{fill:#6ac5fe;}.cls-2,.cls-4{stroke:#334e6c;stroke-miterlimit:10;stroke-width:2px;}.cls-3{fill:#fff;}.cls-4{fill:none;}</style></defs><g id="Layer_2" data-name="Layer 2"><g id="icons"><circle class="cls-1" cx="21.5" cy="21.5" r="21.5"/><path class="cls-2" d="M45,12V10a4,4,0,0,0-4-4H21a4,4,0,0,0-4,4v2Z"/><path class="cls-2" d="M17,47v4a4.46,4.46,0,0,0,4,4H41a4.46,4.46,0,0,0,4-4V47Z"/><rect class="cls-3" x="17" y="12" width="28" height="35"/><polyline class="cls-4" points="17 26 17 12 45 12 45 47 17 47 17 32"/><line class="cls-4" x1="29" y1="51" x2="34" y2="51"/><path class="cls-4" d="M48,12h3a4,4,0,0,1,4,4V40"/><polyline class="cls-4" points="59 36 55 40 51 36"/><path class="cls-4" d="M14,12H12a4,4,0,0,0-4,4v8"/><polyline class="cls-4" points="4 20 8 24 12 20"/><line class="cls-4" x1="55" y1="43" x2="55" y2="45"/><line class="cls-4" x1="55" y1="47" x2="55" y2="49"/><path class="cls-4" d="M27,62H17a9,9,0,0,1-9-9V46"/><path class="cls-4" d="M55,51v2a9,9,0,0,1-9,9H37"/><polyline class="cls-4" points="28 25 32 29 28 33"/><path class="cls-4" d="M32,29H12a4,4,0,0,0-4,4v3"/><line class="cls-4" x1="8" y1="38" x2="8" y2="40"/><line class="cls-4" x1="8" y1="42" x2="8" y2="44"/><line class="cls-4" x1="29" y1="62" x2="31" y2="62"/><line class="cls-4" x1="33" y1="62" x2="35" y2="62"/></g></g></svg>