<svg xmlns="http://www.w3.org/2000/svg" viewBox="0 0 59.37 60.4"><defs><style>.cls-1{fill:#e7eefa;}.cls-2{fill:#6ac5fe;}.cls-3{fill:none;stroke:#334e6c;stroke-miterlimit:10;stroke-width:2px;}</style></defs><g id="Layer_2" data-name="Layer 2"><g id="icons"><circle class="cls-1" cx="22.87" cy="38.9" r="21.5" transform="translate(-21.03 28.47) rotate(-46.18)"/><path class="cls-2" d="M46.87,10.47A11.48,11.48,0,0,0,35.38,22.39h0a12,12,0,0,0-10.95,7.08s-4.05-3.33-4.05-5.08v-4h5a3,3,0,0,0,3-3V16.31a3,3,0,0,0-.5-1.66l-1.8-2.71a4,4,0,0,0-4.6-1.57l-9.36,3.12a4,4,0,0,0-2.74,3.79V32.4c0,6.69,7.46,14.25,10,17a3.2,3.2,0,0,0,3,3h5a22,22,0,0,0,21.8-19l0-.23a11.47,11.47,0,0,0-2.32-22.7Z"/><path class="cls-3" d="M23.37,34.4a12,12,0,0,1,12-12"/><path class="cls-3" d="M36.57,27a11.36,11.36,0,0,1-1.2-5.1A11.5,11.5,0,1,1,46.87,33.4,11.64,11.64,0,0,1,43,32.75"/><path class="cls-3" d="M24.37,29.4s-4-3.25-4-5v-4h5a3,3,0,0,0,3-3V16.31a3,3,0,0,0-.5-1.66l-1.8-2.71a4,4,0,0,0-4.6-1.57l-9.36,3.12a4,4,0,0,0-2.74,3.79V32.4c0,6.69,7.46,14.25,10,17a3.2,3.2,0,0,0,3,3h5a22,22,0,0,0,21.8-19"/><line class="cls-3" x1="20.37" y1="20.4" x2="17.37" y2="20.4"/><path class="cls-3" d="M40.37,37.4a7,7,0,0,1-7,7"/><polyline class="cls-3" points="5.48 22.4 1.57 19.65 5.03 16.34 2.69 12.17 7.24 10.69 6.96 5.91 11.7 6.55 13.51 2.13 17.5 4.76 21.05 1.56 23.51 5.66 28.1 4.32 28.53 9.08"/></g></g></svg>