<svg xmlns="http://www.w3.org/2000/svg" viewBox="0 0 63.19 58"><defs><style>.cls-1{fill:#e7eefa;}.cls-2,.cls-3{fill:none;}.cls-2,.cls-4{stroke:#334e6c;}.cls-2,.cls-3,.cls-4{stroke-miterlimit:10;stroke-width:2px;}.cls-3{stroke:#e7eefa;}.cls-4{fill:#6ac5fe;}</style></defs><g id="Layer_2" data-name="Layer 2"><g id="icons"><path class="cls-1" d="M19.24,0A18.47,18.47,0,0,0,3.57,28.3a10.35,10.35,0,0,1,8-3.55,10.71,10.71,0,0,1,1.61.14,8.53,8.53,0,0,1-.28-2.16,8.88,8.88,0,0,1,12.17-8.25A14.55,14.55,0,0,1,33,6.2,18.4,18.4,0,0,0,19.24,0Z"/><path class="cls-2" d="M39.74,43h12c5.79,0,9.8-4.55,9.8-10.43a10.71,10.71,0,0,0-8.77-10.79A13.64,13.64,0,0,0,53,19.45a14.41,14.41,0,0,0-27.92-5,8.88,8.88,0,0,0-12.17,8.25,8.53,8.53,0,0,0,.28,2.16,10.71,10.71,0,0,0-1.61-.14c-5.32,0-9.91,3.59-9.91,8.9A9.57,9.57,0,0,0,11.47,43H27.74"/><path class="cls-3" d="M.74,43.33C3.64,46.56,6.83,48,12.56,48h4.18"/><path class="cls-3" d="M62.28,43c-1.29,2.83-4.87,5-8.35,5H49.74"/><line class="cls-2" x1="30.74" y1="29" x2="30.74" y2="21"/><polyline class="cls-2" points="44.74 21 44.74 27.13 36.74 32 36.74 46"/><path class="cls-4" d="M43.11,20.47a2.49,2.49,0,1,1,3.47-.53A2.48,2.48,0,0,1,43.11,20.47Z"/><path class="cls-4" d="M35.89,26.35a2.48,2.48,0,1,1,3.47-.52A2.49,2.49,0,0,1,35.89,26.35Z"/><path class="cls-4" d="M29.19,33.26a2.48,2.48,0,1,1,3.47-.52A2.48,2.48,0,0,1,29.19,33.26Z"/><polyline class="cls-2" points="22.74 27 22.74 33.11 30.74 39 30.74 50"/><path class="cls-4" d="M23.83,26.38a2.48,2.48,0,1,0-3.47-.52A2.48,2.48,0,0,0,23.83,26.38Z"/><path class="cls-4" d="M29.18,20.44a2.48,2.48,0,1,1,3.47-.52A2.48,2.48,0,0,1,29.18,20.44Z"/><path class="cls-2" d="M45.74,39h5.14a7.16,7.16,0,0,0,6.86-7"/><path class="cls-2" d="M19.74,39H11.42c-2.82,0-5.68-2.18-5.68-5"/><line class="cls-2" x1="36.74" y1="48" x2="36.74" y2="50"/><line class="cls-2" x1="36.74" y1="52" x2="36.74" y2="54"/><line class="cls-2" x1="30.74" y1="52" x2="30.74" y2="54"/><line class="cls-2" x1="30.74" y1="56" x2="30.74" y2="58"/></g></g></svg>