<svg xmlns="http://www.w3.org/2000/svg" viewBox="0 0 52 60"><defs><style>.cls-1{fill:#e7eefa;}.cls-2{fill:none;}.cls-2,.cls-3{stroke:#334e6c;stroke-miterlimit:10;stroke-width:2px;}.cls-3{fill:#fff;}.cls-4{fill:#6ac5fe;}</style></defs><g id="Layer_2" data-name="Layer 2"><g id="icons"><circle class="cls-1" cx="26" cy="30" r="25"/><line class="cls-2" x1="26" y1="51" x2="26" y2="9"/><line class="cls-2" x1="44.19" y1="19.5" x2="7.81" y2="40.5"/><line class="cls-2" x1="7.81" y1="19.5" x2="44.19" y2="40.5"/><circle class="cls-3" cx="26" cy="30" r="16" transform="matrix(0.76, -0.64, 0.64, 0.76, -13.22, 23.83)"/><line class="cls-2" x1="12" y1="13" x2="19" y2="9"/><line class="cls-2" x1="5" y1="36" x2="5" y2="24"/><line class="cls-2" x1="19" y1="51" x2="12" y2="47"/><line class="cls-2" x1="40" y1="47" x2="33" y2="51"/><line class="cls-2" x1="47" y1="24" x2="47" y2="36"/><line class="cls-2" x1="33" y1="9" x2="40" y2="13"/><path class="cls-4" d="M26,33c-3,0-9,.87-9,4v2a14,14,0,0,0,18,0V37C35,33.87,29,33,26,33Z"/><path class="cls-3" d="M26,29a3.93,3.93,0,0,0,4-3.86V22.86a4,4,0,0,0-8,0v2.28A3.93,3.93,0,0,0,26,29Z"/><path class="cls-2" d="M35,39V37c0-3.13-6-4-9-4s-9,.87-9,4v2"/><circle class="cls-3" cx="26" cy="5" r="4"/><circle class="cls-3" cx="47" cy="17" r="4"/><circle class="cls-3" cx="47" cy="43" r="4"/><circle class="cls-3" cx="5" cy="43" r="4"/><circle class="cls-3" cx="5" cy="17" r="4"/><path class="cls-3" d="M26,59a4,4,0,1,1,4-4,4,4,0,0,1-4,4"/></g></g></svg>