<svg xmlns="http://www.w3.org/2000/svg" viewBox="0 0 62 60"><defs><style>.cls-1{fill:#e7eefa;}.cls-2{fill:#fff;}.cls-3,.cls-5{fill:#6ac5fe;}.cls-4,.cls-6{fill:none;}.cls-4,.cls-5,.cls-6{stroke:#334e6c;stroke-linejoin:round;stroke-width:2px;}.cls-5,.cls-6{stroke-linecap:round;}</style></defs><g id="Layer_2" data-name="Layer 2"><g id="icons"><circle class="cls-1" cx="31" cy="30" r="30"/><rect class="cls-2" x="1" y="11" width="60" height="39" rx="1"/><path class="cls-3" d="M61,17H1V12a1,1,0,0,1,1-1H60a1,1,0,0,1,1,1Z"/><rect class="cls-4" x="1" y="11" width="60" height="39" rx="1"/><line class="cls-4" x1="3" y1="17" x2="59" y2="17"/><line class="cls-4" x1="4" y1="14" x2="6" y2="14"/><line class="cls-4" x1="7" y1="14" x2="9" y2="14"/><circle class="cls-5" cx="31" cy="41" r="3"/><line class="cls-6" x1="27.5" y1="34.94" x2="23" y2="27.14"/><line class="cls-6" x1="34.5" y1="34.94" x2="39" y2="27.14"/><line class="cls-6" x1="33.63" y1="39.56" x2="42" y2="35"/><path class="cls-6" d="M38,40.12A8.49,8.49,0,0,1,38,41h9a16,16,0,0,0-32,0h9a7,7,0,0,1,11.43-5.42"/></g></g></svg>