<svg xmlns="http://www.w3.org/2000/svg" viewBox="0 0 54.08 58"><defs><style>.cls-1{fill:#e7eefa;}.cls-2{fill:#6ac5fe;}.cls-2,.cls-3,.cls-4,.cls-6{stroke:#334e6c;stroke-width:2px;}.cls-2,.cls-3{stroke-linejoin:round;}.cls-3,.cls-6{fill:none;}.cls-4,.cls-5{fill:#fff;}.cls-4,.cls-6{stroke-miterlimit:10;}</style></defs><g id="Layer_2" data-name="Layer 2"><g id="icons"><circle class="cls-1" cx="26.5" cy="25.5" r="22.5" transform="translate(-10.27 26.33) rotate(-45.18)"/><path class="cls-2" d="M41,7.31V18.07A12.52,12.52,0,0,1,53.07,20l-.9-1.63L49.28,13l3.8-3.76A12.56,12.56,0,0,0,41,7.31Z"/><path class="cls-2" d="M28,4V14.73A14,14,0,0,1,41,15V4.23A14,14,0,0,0,28,4Z"/><line class="cls-3" x1="28" x2="28" y2="58"/><path class="cls-4" d="M11.5,17.76A4.55,4.55,0,0,0,16,13.05V11.48a4.5,4.5,0,1,0-9,0v1.57A4.55,4.55,0,0,0,11.5,17.76Z"/><path class="cls-5" d="M9,21c-4.75,0-8,1.51-8,6V37a4.08,4.08,0,0,0,4,4l1,1.31V58H18V26h9a5.18,5.18,0,0,0,5-5Z"/><path class="cls-6" d="M18,58V26h9a5.18,5.18,0,0,0,5-5H9c-4.75,0-8,1.51-8,6V37a4.08,4.08,0,0,0,4,4"/><line class="cls-6" x1="6" y1="27" x2="6" y2="58"/><line class="cls-3" x1="12" y1="40" x2="12" y2="58"/></g></g></svg>