<svg xmlns="http://www.w3.org/2000/svg" viewBox="0 0 62 61"><defs><style>.cls-1{fill:#e7eefa;}.cls-2,.cls-4{fill:#fff;}.cls-3{fill:none;}.cls-3,.cls-4,.cls-6{stroke:#334e6c;stroke-width:2px;}.cls-3,.cls-4{stroke-miterlimit:10;}.cls-5,.cls-6{fill:#6ac5fe;}.cls-6{stroke-linejoin:round;}</style></defs><g id="Layer_2" data-name="Layer 2"><g id="icons"><circle class="cls-1" cx="28" cy="27" r="27"/><rect class="cls-2" x="22" y="12" width="39" height="32"/><polyline class="cls-3" points="22 25 22 12 61 12 61 45 22 45 22 36"/><path class="cls-4" d="M11.5,24.76A4.55,4.55,0,0,0,16,20.05V18.48a4.5,4.5,0,1,0-9,0v1.57A4.55,4.55,0,0,0,11.5,24.76Z"/><path class="cls-5" d="M9,28c-4.75,0-8,1.51-8,6v9a4.08,4.08,0,0,0,4,4H6V61H18V33h9a5.18,5.18,0,0,0,5-5Z"/><path class="cls-3" d="M18,61V33h9a5.18,5.18,0,0,0,5-5H9c-4.75,0-8,1.51-8,6v9a4.08,4.08,0,0,0,4,4"/><line class="cls-3" x1="12" y1="45" x2="12" y2="61"/><line class="cls-3" x1="6" y1="34" x2="6" y2="61"/><polygon class="cls-6" points="37 22.28 37 35.32 48 28.8 37 22.28"/></g></g></svg>