<svg xmlns="http://www.w3.org/2000/svg" viewBox="0 0 62 57"><defs><style>.cls-1{fill:#e7eefa;}.cls-2,.cls-5{fill:#fff;}.cls-3{fill:#6ac5fe;}.cls-4,.cls-6,.cls-7{fill:none;}.cls-4,.cls-5,.cls-6{stroke:#334e6c;}.cls-4,.cls-5,.cls-7{stroke-miterlimit:10;}.cls-4,.cls-5,.cls-6,.cls-7{stroke-width:2px;}.cls-6{stroke-linejoin:round;}.cls-7{stroke:#e7eefa;}</style></defs><g id="Layer_2" data-name="Layer 2"><g id="icons"><circle class="cls-1" cx="33" cy="33" r="22"/><path class="cls-2" d="M8,1H52a2,2,0,0,1,2,2V35a0,0,0,0,1,0,0H6a0,0,0,0,1,0,0V3A2,2,0,0,1,8,1Z"/><path class="cls-3" d="M32,34l-1,1H26l-1-1H1a4,4,0,0,0,4,4H40V34Z"/><path class="cls-4" d="M54,11V3a2,2,0,0,0-2-2H8A2,2,0,0,0,6,3V34"/><path class="cls-4" d="M40,34H32l-1,1H26l-1-1H1a4,4,0,0,0,4,4H40"/><rect class="cls-5" x="42" y="13" width="19" height="36" rx="2"/><line class="cls-6" x1="50" y1="46" x2="53" y2="46"/><line class="cls-7" x1="24" y1="41" x2="24" y2="43"/><line class="cls-7" x1="24" y1="45" x2="24" y2="47"/><line class="cls-7" x1="25" y1="44" x2="27" y2="44"/><line class="cls-7" x1="21" y1="44" x2="23" y2="44"/><line class="cls-7" x1="33" y1="45" x2="33" y2="49"/><line class="cls-7" x1="33" y1="53" x2="33" y2="57"/><line class="cls-7" x1="31" y1="51" x2="27" y2="51"/><line class="cls-7" x1="39" y1="51" x2="35" y2="51"/></g></g></svg>