<svg xmlns="http://www.w3.org/2000/svg" viewBox="0 0 61 56.29"><defs><style>.cls-1{fill:#e7eefa;}.cls-2{fill:#6ac5fe;}.cls-3,.cls-5{fill:none;}.cls-3,.cls-4,.cls-5{stroke:#334e6c;stroke-miterlimit:10;stroke-width:2px;}.cls-4{fill:#fff;}.cls-5{stroke-linecap:round;}</style></defs><g id="Layer_2" data-name="Layer 2"><g id="icons"><circle class="cls-1" cx="40" cy="21" r="21"/><path class="cls-2" d="M50.59,51.59,38.27,39.27,35.11,42.1,47.59,54.59a1.79,1.79,0,0,0,2.47.35l.88-.88A1.79,1.79,0,0,0,50.59,51.59Z"/><path class="cls-3" d="M38.27,39.27,50.59,51.59a1.79,1.79,0,0,1,.35,2.47l-.88.88a1.79,1.79,0,0,1-2.47-.35L35.11,42.1"/><path class="cls-4" d="M28.5,19.09A12.46,12.46,0,1,0,41,31.54,12.45,12.45,0,0,0,28.5,19.09Z"/><rect class="cls-3" x="23" y="27" width="4.98" height="9" rx="1" transform="translate(50.98 63) rotate(180)"/><line class="cls-5" x1="10.98" y1="27" x2="10.98" y2="36"/><rect class="cls-3" x="1" y="27" width="4.98" height="9" rx="1" transform="translate(6.98 63) rotate(180)"/><line class="cls-5" x1="1" y1="42" x2="1" y2="51"/><line class="cls-5" x1="17" y1="44" x2="17" y2="51"/><rect class="cls-3" x="6" y="42" width="4.98" height="9" rx="1"/><line class="cls-5" x1="55.98" y1="42" x2="55.98" y2="51"/><path class="cls-5" d="M52,47V43a1,1,0,0,0-1-1H48a1,1,0,0,0-1,1"/><path class="cls-5" d="M28,47v3a1,1,0,0,1-1,1H24a1,1,0,0,1-1-1V47"/><path class="cls-5" d="M33,47v3a1,1,0,0,0,1,1h3a1,1,0,0,0,1-1"/><line class="cls-5" x1="1" y1="22" x2="1" y2="13"/><line class="cls-5" x1="17" y1="20" x2="17" y2="13"/><rect class="cls-3" x="6" y="13" width="4.98" height="9" rx="1"/><line class="cls-5" x1="45" y1="22" x2="45" y2="13"/><path class="cls-5" d="M29,16V14a1,1,0,0,0-1-1H25a1,1,0,0,0-1,1v2"/><path class="cls-5" d="M39,19V14a1,1,0,0,0-1-1H35a1,1,0,0,0-1,1l0,2"/><line class="cls-5" x1="55.98" y1="27" x2="55.98" y2="36"/><rect class="cls-3" x="46" y="27" width="4.98" height="9" rx="1" transform="translate(96.98 63) rotate(180)"/><rect class="cls-3" x="51" y="13" width="4.98" height="9" rx="1" transform="translate(106.98 35) rotate(180)"/><line class="cls-5" x1="32.98" y1="27" x2="32.98" y2="36"/></g></g></svg>