<svg xmlns="http://www.w3.org/2000/svg" viewBox="0 0 61.35 63.39"><defs><style>.cls-1{fill:#e7eefa;}.cls-2,.cls-6{fill:#fff;}.cls-3,.cls-5{fill:#6ac5fe;}.cls-4{fill:none;}.cls-4,.cls-5,.cls-6{stroke:#334e6c;stroke-width:2px;}.cls-4,.cls-6{stroke-miterlimit:10;}.cls-5{stroke-linejoin:round;}</style></defs><g id="Layer_2" data-name="Layer 2"><g id="icons"><circle class="cls-1" cx="22" cy="22" r="22"/><rect class="cls-2" x="9" y="7" width="50" height="49" rx="1"/><path class="cls-3" d="M58,7H10A1,1,0,0,0,9,8v5H59V8A1,1,0,0,0,58,7Z"/><path class="cls-4" d="M59,42V8a1,1,0,0,0-1-1H10A1,1,0,0,0,9,8V55a1,1,0,0,0,1,1H36"/><line class="cls-4" x1="11" y1="13" x2="57" y2="13"/><line class="cls-4" x1="12" y1="10" x2="14" y2="10"/><line class="cls-4" x1="16" y1="10" x2="18" y2="10"/><path class="cls-5" d="M38.49,32.49,41,31.24l-1.8-4.36-2.65.88a11.23,11.23,0,0,0-2.62-2.62l.88-2.65-4.36-1.8-1.25,2.5a11.26,11.26,0,0,0-3.71,0l-1.25-2.49-4.35,1.8.88,2.65a11.27,11.27,0,0,0-2.62,2.63l-2.66-.89-1.8,4.36,2.5,1.25a11.27,11.27,0,0,0,0,3.71l-2.5,1.25,1.8,4.35,2.65-.88a11.27,11.27,0,0,0,2.63,2.62l-.88,2.66L24.22,48l1.25-2.5a11.27,11.27,0,0,0,3.71,0L30.43,48l4.36-1.8-.88-2.65a11.47,11.47,0,0,0,2.62-2.63l2.65.88L41,37.45l-2.5-1.25A11,11,0,0,0,38.49,32.49ZM27.5,39A4.5,4.5,0,1,1,32,34.5,4.49,4.49,0,0,1,27.5,39Z"/><path class="cls-6" d="M58.11,49.94l2-1-1.42-3.41-2.08.69a8.72,8.72,0,0,0-2-2.06l.69-2.08-3.42-1.41-1,2a8.62,8.62,0,0,0-2.91,0l-1-2L43.51,42.1l.69,2.08a8.76,8.76,0,0,0-2.06,2.06l-2.08-.69L38.65,49l2,1a8.62,8.62,0,0,0,0,2.91l-2,1,1.41,3.42,2.08-.7a9,9,0,0,0,2.06,2.06l-.69,2.08,3.41,1.41,1-2a8.88,8.88,0,0,0,2.91,0l1,2,3.42-1.41-.69-2.08a8.72,8.72,0,0,0,2-2.06l2.08.7,1.42-3.42-2-1A9.16,9.16,0,0,0,58.11,49.94ZM49.5,55A3.5,3.5,0,1,1,53,51.5,3.5,3.5,0,0,1,49.5,55Z"/></g></g></svg>