<svg xmlns="http://www.w3.org/2000/svg" viewBox="0 0 63.83 55"><defs><style>.cls-1{fill:#e7eefa;}.cls-2{fill:#fff;}.cls-3{fill:none;stroke:#334e6c;stroke-miterlimit:10;stroke-width:2px;}.cls-4{fill:#6ac5fe;}</style></defs><g id="Layer_2" data-name="Layer 2"><g id="icons"><circle class="cls-1" cx="31.41" cy="23" r="23"/><polygon class="cls-2" points="7.41 11 1.41 17 7.41 23 28.41 23 28.41 11 7.41 11"/><polygon class="cls-1" points="56.41 17 33.41 17 33.41 29 56.41 29 62.41 23 56.41 17"/><polyline class="cls-3" points="49.41 17 56.41 17 62.41 23 56.41 29 33.41 29 33.41 17 38.41 17"/><line class="cls-3" x1="40.41" y1="17" x2="42.41" y2="17"/><line class="cls-3" x1="44.41" y1="17" x2="47.41" y2="17"/><path class="cls-2" d="M32.91,4a4.5,4.5,0,0,0-4.5,4.5V54h9V8.5A4.49,4.49,0,0,0,32.91,4Z"/><path class="cls-3" d="M28.41,20V8.5A4.5,4.5,0,0,1,32.91,4h0a4.49,4.49,0,0,1,4.5,4.5V54h-9V23"/><line class="cls-3" x1="19.41" y1="54" x2="46.41" y2="54"/><line class="cls-3" x1="28.41" y1="11" x2="21.41" y2="11"/><line class="cls-3" x1="37.41" y1="23" x2="44.41" y2="23"/><polyline class="cls-3" points="15.41 11 7.41 11 1.41 17 7.41 23 34.41 23"/><polygon class="cls-4" points="14.41 29 8.41 35 14.41 41 32.41 41 32.41 29 14.41 29"/><polyline class="cls-3" points="24.41 41 32.41 41 32.41 29 14.41 29 8.41 35 14.41 41 18.41 41"/><line class="cls-3" x1="19.41" y1="11" x2="17.41" y2="11"/><line class="cls-3" x1="22.41" y1="41" x2="20.41" y2="41"/><line class="cls-3" x1="46.41" y1="23" x2="48.41" y2="23"/><line class="cls-3" x1="50.41" y1="23" x2="52.41" y2="23"/></g></g></svg>