<svg xmlns="http://www.w3.org/2000/svg" viewBox="0 0 61 62"><defs><style>.cls-1{fill:#e7eefa;}.cls-2,.cls-5{fill:#fff;}.cls-3,.cls-6{fill:#6ac5fe;}.cls-4,.cls-7{fill:none;}.cls-4,.cls-5,.cls-6,.cls-7{stroke:#334e6c;stroke-width:2px;}.cls-4,.cls-5,.cls-6{stroke-miterlimit:10;}.cls-7{stroke-linecap:round;stroke-linejoin:round;}</style></defs><g id="Layer_2" data-name="Layer 2"><g id="icons"><circle class="cls-1" cx="33" cy="28" r="28" transform="translate(-1.34 54.34) rotate(-77.8)"/><rect class="cls-2" x="5" y="13" width="35" height="44"/><path class="cls-3" d="M44,25V11a2,2,0,0,0-2-2H3a2,2,0,0,0-2,2V59a2,2,0,0,0,2,2H42a2,2,0,0,0,2-2V41l-4,4V57H5V13H40V29Z"/><path class="cls-4" d="M44,41V59a2,2,0,0,1-2,2H3a2,2,0,0,1-2-2V11A2,2,0,0,1,3,9h7"/><path class="cls-4" d="M34,9h8a2,2,0,0,1,2,2V25"/><polyline class="cls-4" points="40 45 40 57 5 57 5 13 10 13"/><polyline class="cls-4" points="34 13 40 13 40 29"/><path class="cls-5" d="M29,8H26a4,4,0,0,0-8,0H15a3,3,0,0,0-3,3v3H32V11A3,3,0,0,0,29,8Z"/><line class="cls-4" x1="22" y1="7" x2="22" y2="9"/><path class="cls-6" d="M56.33,20.76a3.24,3.24,0,0,1,1.15,2.59L37.05,43.78A8.71,8.71,0,0,1,31,46a8.71,8.71,0,0,1,2.23-6L53.66,19.53a3.26,3.26,0,0,1,2.6,1.16Z"/><line class="cls-4" x1="51.52" y1="21.6" x2="55.34" y2="25.42"/><line class="cls-4" x1="33" y1="40" x2="37" y2="44"/><line class="cls-4" x1="20" y1="24" x2="33" y2="24"/><polyline class="cls-7" points="17 23 13 28 11 25"/><line class="cls-4" x1="20" y1="33" x2="33" y2="33"/><line class="cls-4" x1="20" y1="28" x2="31" y2="28"/><line class="cls-4" x1="20" y1="37" x2="30" y2="37"/><line class="cls-4" x1="20" y1="42" x2="28" y2="42"/><line class="cls-4" x1="20" y1="46" x2="26" y2="46"/><polyline class="cls-7" points="17 32 13 37 11 34"/><polyline class="cls-7" points="17 41 13 46 11 43"/></g></g></svg>