<svg xmlns="http://www.w3.org/2000/svg" viewBox="0 0 61.76 61.23"><defs><style>.cls-1{fill:#e7eefa;}.cls-2{fill:#6ac5fe;}.cls-2,.cls-3{stroke:#334e6c;}.cls-2,.cls-3,.cls-4{stroke-miterlimit:10;stroke-width:2px;}.cls-3,.cls-4{fill:none;}.cls-4{stroke:#e7eefa;}</style></defs><g id="Layer_2" data-name="Layer 2"><g id="icons"><ellipse class="cls-1" cx="30.5" cy="31.6" rx="18" ry="17.87"/><path class="cls-2" d="M37.09,45.78A16.57,16.57,0,0,0,27,42a23.69,23.69,0,0,0-3.65,3.84c-1.87-.64-3.91-2.68-5.72-4.87S14.24,36.36,14,34.4a24.05,24.05,0,0,0,4.48-2.84,16.63,16.63,0,0,0-1.78-10.62A20.72,20.72,0,0,0,6.55,22.26c-1.41,4.17-1.87,13.58,6,23.47,8.2,9.59,17.64,9.57,22,9C36.69,51.68,37,47.77,37.09,45.78Z"/><path class="cls-3" d="M33.5,32.73h-7v-.94l3.08-3a18,18,0,0,0,1.84-1.91,4.9,4.9,0,0,0,.77-1.27,3.22,3.22,0,0,0,.24-1.27A2.56,2.56,0,0,0,30.25,22a4.4,4.4,0,0,0-4.58,2.11"/><path class="cls-3" d="M43.5,29.73h-8V28.27l4-6.54h2v12"/><path class="cls-4" d="M30.88,60.23A29.87,29.87,0,0,1,1,30.36"/><path class="cls-4" d="M36.38,1A29.9,29.9,0,0,1,60.76,30.36"/><path class="cls-4" d="M59.24,41.29a30.54,30.54,0,0,1-13.19,15.4"/><path class="cls-3" d="M10.25,16.73A24.5,24.5,0,1,1,38.5,54.22"/><line class="cls-3" x1="33.5" y1="37.73" x2="35.5" y2="37.73"/><line class="cls-3" x1="37.5" y1="37.73" x2="39.5" y2="37.73"/><line class="cls-3" x1="41.5" y1="37.73" x2="43.5" y2="37.73"/></g></g></svg>