<svg xmlns="http://www.w3.org/2000/svg" viewBox="0 0 53 58"><defs><style>.cls-1{fill:#e7eefa;}.cls-2{fill:#6ac5fe;}.cls-2,.cls-4,.cls-5{stroke:#334e6c;stroke-miterlimit:10;stroke-width:2px;}.cls-3,.cls-5{fill:#fff;}.cls-4{fill:none;}</style></defs><g id="Layer_2" data-name="Layer 2"><g id="icons"><circle class="cls-1" cx="29.5" cy="30.5" r="23.5" transform="translate(-12.93 29.79) rotate(-45)"/><path class="cls-2" d="M29,14V12a4,4,0,0,0-4-4H5a4,4,0,0,0-4,4v2Z"/><path class="cls-2" d="M1,49v4a4.46,4.46,0,0,0,4,4H25a4.46,4.46,0,0,0,4-4V49Z"/><rect class="cls-3" x="1" y="14" width="28" height="35"/><polyline class="cls-4" points="29 27 29 49 1 49 1 14 29 14 29 20"/><line class="cls-4" x1="13" y1="53" x2="18" y2="53"/><path class="cls-5" d="M46,4V20.05a3,3,0,0,1-3,2.95H26.87l-6.08,7.73A1,1,0,0,1,19,30.11V23H17a3,3,0,0,1-3-3V4a3,3,0,0,1,3-3H43A3,3,0,0,1,46,4Z"/><line class="cls-4" x1="25" y1="12" x2="27" y2="12"/><line class="cls-4" x1="29" y1="12" x2="31" y2="12"/><line class="cls-4" x1="33" y1="12" x2="35" y2="12"/></g></g></svg>