<svg xmlns="http://www.w3.org/2000/svg" viewBox="0 0 63.15 49.05"><defs><style>.cls-1,.cls-2{fill:#e7eefa;}.cls-2,.cls-3,.cls-5{stroke:#334e6c;}.cls-2,.cls-3,.cls-5,.cls-6{stroke-miterlimit:10;stroke-width:2px;}.cls-3{fill:#6ac5fe;}.cls-4{fill:#fff;}.cls-5,.cls-6{fill:none;}.cls-6{stroke:#e7eefa;}</style></defs><g id="Layer_2" data-name="Layer 2"><g id="icons"><circle class="cls-1" cx="31" cy="24.07" r="15.5" transform="translate(-6.85 13.7) rotate(-22.5)"/><path class="cls-2" d="M62.15,24.53c0,15-4.39,20.72-7.61,23.45A19,19,0,0,1,46,43.21a17.58,17.58,0,0,1,4-10.06,19.32,19.32,0,0,1,4.92.19,24.09,24.09,0,0,0,1.5-8.7A25.44,25.44,0,0,0,55,15.72a20.27,20.27,0,0,1-4.92.19A17.61,17.61,0,0,1,46,5.84a19.14,19.14,0,0,1,8.54-4.77C57.76,3.8,62.15,9.48,62.15,24.53Z"/><path class="cls-3" d="M1,24.53C1,39.58,5.39,45.25,8.61,48a19,19,0,0,0,8.54-4.77,17.58,17.58,0,0,0-4-10.06,19.32,19.32,0,0,0-4.92.19,23.87,23.87,0,0,1-1.5-8.7,25.21,25.21,0,0,1,1.5-8.92,20.27,20.27,0,0,0,4.92.19,17.61,17.61,0,0,0,4-10.07A19.14,19.14,0,0,0,8.61,1.07C5.39,3.8,1,9.48,1,24.53Z"/><polygon class="cls-4" points="49.47 27.31 38 17.07 25 17.07 25 12.07 13.54 22.31 25 32.07 38 32.07 38 37.07 49.47 27.31"/><polyline class="cls-5" points="28 32.07 38 32.07 38 37.07 49.47 27.31 38 17.07 38 22.07 30 22.07"/><polyline class="cls-5" points="33 27.07 25 27.07 25 32.07 13.54 22.31 25 12.07 25 17.07 35 17.07"/><line class="cls-5" x1="35" y1="27.07" x2="37" y2="27.07"/><line class="cls-5" x1="28" y1="22.07" x2="26" y2="22.07"/><path class="cls-6" d="M21,40.66a19.38,19.38,0,0,0,20,0"/><path class="cls-6" d="M41,6.86a19.32,19.32,0,0,0-20,0"/></g></g></svg>