<svg xmlns="http://www.w3.org/2000/svg" viewBox="0 0 64 55.12"><defs><style>.cls-1{fill:#e7eefa;}.cls-2{fill:#fff;}.cls-2,.cls-3,.cls-4{stroke:#334e6c;stroke-miterlimit:10;stroke-width:2px;}.cls-3{fill:none;}.cls-4{fill:#6ac5fe;}</style></defs><g id="Layer_2" data-name="Layer 2"><g id="icons"><circle class="cls-1" cx="19.49" cy="18.5" r="18.5"/><path class="cls-2" d="M54.15,11.12A4.72,4.72,0,0,1,59,15.79V46.12H6V15.79c0-2.67,1.66-4.67,4.4-4.67Z"/><path class="cls-2" d="M1,46.12H63a0,0,0,0,1,0,0v1.66a6.34,6.34,0,0,1-6.34,6.34H8a7,7,0,0,1-7-7v-1A0,0,0,0,1,1,46.12Z"/><line class="cls-3" x1="28" y1="50.12" x2="39" y2="50.12"/><line class="cls-3" x1="55" y1="26.12" x2="55" y2="43.12"/><polyline class="cls-3" points="10 43.12 10 15.12 28 15.12"/><path class="cls-4" d="M63,4.12V20.17a3,3,0,0,1-3,2.95H43.87l-6.08,7.73A1,1,0,0,1,36,30.23V23.12H34a3,3,0,0,1-3-3v-16a3,3,0,0,1,3-3H60A3,3,0,0,1,63,4.12Z"/><line class="cls-3" x1="42" y1="12.12" x2="44" y2="12.12"/><line class="cls-3" x1="46" y1="12.12" x2="48" y2="12.12"/><line class="cls-3" x1="50" y1="12.12" x2="52" y2="12.12"/><path class="cls-1" d="M23,32.12c-2.15,0-9,2.08-9,4.78v6.22H32V36.9C32,34.2,25.15,32.12,23,32.12Z"/><path class="cls-3" d="M32,43.12V36.9c0-2.7-6.85-4.78-9-4.78s-9,2.08-9,4.78v6.22"/><path class="cls-2" d="M28,24.62a4.49,4.49,0,0,0-4.5-4.5h0a4.49,4.49,0,0,0-4.5,4.5v3a4.5,4.5,0,0,0,4.5,4.5h0a4.5,4.5,0,0,0,4.5-4.5Z"/></g></g></svg>