<svg xmlns="http://www.w3.org/2000/svg" viewBox="0 0 54 62.41"><defs><style>.cls-1{fill:#e7eefa;}.cls-2{fill:#fff;}.cls-3{fill:none;}.cls-3,.cls-4{stroke:#334e6c;stroke-miterlimit:10;stroke-width:2px;}.cls-4{fill:#6ac5fe;}</style></defs><g id="Layer_2" data-name="Layer 2"><g id="icons"><circle class="cls-1" cx="27" cy="27" r="27"/><path class="cls-2" d="M44,20c0-7.36-7.39-15-16.5-15S11,12.64,11,20V31a24.23,24.23,0,0,0,4,2,15.81,15.81,0,0,0,8.08,13.7l.27.14a8.4,8.4,0,0,0,8.55,0l.14-.09a16.31,16.31,0,0,0,5.79-5.91A6.31,6.31,0,0,0,39,41c3.31,0,5-4,5-4Z"/><path class="cls-3" d="M44,33V20.33C44,13,36.61,5,27.5,5S11,13,11,20.33V31"/><line class="cls-3" x1="19" y1="43" x2="19" y2="50"/><line class="cls-3" x1="36" y1="43" x2="36" y2="50"/><rect class="cls-3" x="27.93" y="51.17" width="14.14" height="5.66" transform="translate(-27.93 40.56) rotate(-45)"/><rect class="cls-3" x="17.17" y="46.93" width="5.66" height="14.14" transform="translate(-32.33 29.96) rotate(-45)"/><path class="cls-4" d="M6,25h.69A4.31,4.31,0,0,1,11,29.31v1.38A4.31,4.31,0,0,1,6.69,35H6a0,0,0,0,1,0,0V25A0,0,0,0,1,6,25Z" transform="translate(17 60) rotate(180)"/><path class="cls-4" d="M44,25h.69A4.31,4.31,0,0,1,49,29.31v1.42A4.27,4.27,0,0,1,44.73,35H44a0,0,0,0,1,0,0V25A0,0,0,0,1,44,25Z"/><path class="cls-3" d="M40,29v3.63a16.38,16.38,0,0,1-8,14.1l-.14.09a8.4,8.4,0,0,1-8.55,0l-.27-.14A16.46,16.46,0,0,1,15,32.56V25"/><path class="cls-3" d="M21,13c0,7,13.94,16,21,16"/><path class="cls-3" d="M15,25c.91-3,4.95-7,8-7"/><path class="cls-3" d="M28,41H38.25a5.54,5.54,0,0,0,5.14-3.49L44,36V34"/><rect class="cls-4" x="24" y="38" width="7" height="5" rx="2" transform="translate(55 81) rotate(180)"/></g></g></svg>