<svg xmlns="http://www.w3.org/2000/svg" viewBox="0 0 61 62"><defs><style>.cls-1{fill:#e7eefa;}.cls-2{fill:#fff;}.cls-3,.cls-6{fill:#6ac5fe;}.cls-4,.cls-5,.cls-7{fill:none;}.cls-4,.cls-5,.cls-6{stroke:#334e6c;}.cls-4{stroke-linecap:round;}.cls-4,.cls-5,.cls-6,.cls-7{stroke-miterlimit:10;stroke-width:2px;}.cls-7{stroke:#e7eefa;}</style></defs><g id="Layer_2" data-name="Layer 2"><g id="icons"><circle class="cls-1" cx="36" cy="35" r="25"/><rect class="cls-2" x="1" y="1" width="40" height="55" rx="1"/><path class="cls-3" d="M2,1H40a1,1,0,0,1,1,1V7a0,0,0,0,1,0,0H1A0,0,0,0,1,1,7V2A1,1,0,0,1,2,1Z"/><path class="cls-4" d="M41,12V2a1,1,0,0,0-1-1H2A1,1,0,0,0,1,2V55a1,1,0,0,0,1,1H40a1,1,0,0,0,1-1V45"/><line class="cls-5" x1="3" y1="7" x2="39" y2="7"/><line class="cls-5" x1="4" y1="4" x2="6" y2="4"/><line class="cls-5" x1="8" y1="4" x2="10" y2="4"/><line class="cls-5" x1="12" y1="4" x2="14" y2="4"/><path class="cls-6" d="M20,16H46a4,4,0,0,1,4,4V37a4,4,0,0,1-4,4H31l-6.29,7.29a1,1,0,0,1-1.71-.7V41H20a4,4,0,0,1-4-4V20A4,4,0,0,1,20,16Z"/><line class="cls-7" x1="50" y1="4" x2="50" y2="10"/><line class="cls-7" x1="47" y1="7" x2="53" y2="7"/><line class="cls-7" x1="54" y1="56" x2="54" y2="62"/><line class="cls-7" x1="51" y1="59" x2="57" y2="59"/><line class="cls-7" x1="48" y1="46" x2="48" y2="52"/><line class="cls-7" x1="45" y1="49" x2="51" y2="49"/><line class="cls-5" x1="33" y1="33" x2="33" y2="35"/><path class="cls-5" d="M30.09,26A2.78,2.78,0,0,1,33,23a2.84,2.84,0,0,1,3,3,3.92,3.92,0,0,1-1.48,2.73A3.47,3.47,0,0,0,33.09,32"/></g></g></svg>