<svg xmlns="http://www.w3.org/2000/svg" viewBox="0 0 63 54"><defs><style>.cls-1,.cls-4{fill:#e7eefa;}.cls-2{fill:none;}.cls-2,.cls-3,.cls-4,.cls-5{stroke:#334e6c;stroke-miterlimit:10;stroke-width:2px;}.cls-3{fill:#6ac5fe;}.cls-5{fill:#fff;}</style></defs><g id="Layer_2" data-name="Layer 2"><g id="icons"><circle class="cls-1" cx="32" cy="27" r="27"/><polyline class="cls-2" points="4 14 10.92 14 15 20 17 20"/><line class="cls-2" x1="4" y1="25" x2="12" y2="25"/><circle class="cls-3" cx="4" cy="14" r="3"/><polyline class="cls-2" points="4 36 10.92 36 14.88 30 17 30"/><circle class="cls-3" cx="4" cy="36" r="3"/><circle class="cls-3" cx="4" cy="25" r="3"/><polyline class="cls-2" points="11.16 45 17.92 35 23 35"/><circle class="cls-3" cx="11" cy="45" r="3"/><polyline class="cls-2" points="59 14 52.08 14 48 20 46 20"/><line class="cls-2" x1="59" y1="25" x2="51" y2="25"/><circle class="cls-3" cx="59" cy="14" r="3"/><polyline class="cls-2" points="59 36 52.08 36 48.12 30 46 30"/><circle class="cls-3" cx="59" cy="36" r="3"/><circle class="cls-3" cx="59" cy="25" r="3"/><polyline class="cls-2" points="51.84 45 45.08 35 40 35"/><circle class="cls-3" cx="52" cy="45" r="3"/><path class="cls-4" d="M42,16V12a3,3,0,0,0-3-3H24a3,3,0,0,0-3,3v4Z"/><path class="cls-4" d="M21,41v5a3,3,0,0,0,3,3H39a3,3,0,0,0,3-3V41Z"/><rect class="cls-5" x="21" y="16" width="21" height="25"/><line class="cls-2" x1="29" y1="45" x2="34" y2="45"/><line class="cls-2" x1="45" y1="25" x2="43" y2="25"/><line class="cls-2" x1="49" y1="25" x2="47" y2="25"/><line class="cls-2" x1="20" y1="25" x2="18" y2="25"/><line class="cls-2" x1="16" y1="25" x2="14" y2="25"/><line class="cls-2" x1="44" y1="20" x2="42" y2="20"/><line class="cls-2" x1="19" y1="20" x2="21" y2="20"/><line class="cls-2" x1="44" y1="30" x2="42" y2="30"/><line class="cls-2" x1="19" y1="30" x2="21" y2="30"/></g></g></svg>