<svg xmlns="http://www.w3.org/2000/svg" viewBox="0 0 63 55"><defs><style>.cls-1{fill:#e7eefa;}.cls-2{fill:#6ac5fe;}.cls-2,.cls-3,.cls-4,.cls-5{stroke:#334e6c;}.cls-2,.cls-3,.cls-4,.cls-5,.cls-6{stroke-miterlimit:10;stroke-width:2px;}.cls-3{fill:#fff;}.cls-4,.cls-5,.cls-6{fill:none;}.cls-5{stroke-linecap:round;}.cls-6{stroke:#e7eefa;}</style></defs><g id="Layer_2" data-name="Layer 2"><g id="icons"><circle class="cls-1" cx="26.5" cy="26.5" r="26.5" transform="translate(-10.97 27.05) rotate(-45.85)"/><path class="cls-2" d="M60,54V49a4,4,0,0,0-4-4H12a4,4,0,0,0-4,4v5Z"/><path class="cls-3" d="M56,45V41a2,2,0,0,0-2-2H53c0-8.81-8.16-13-19-13S15,30.19,15,39H14a2,2,0,0,0-2,2v4Z"/><line class="cls-4" x1="34" y1="21" x2="34" y2="26"/><line class="cls-5" x1="31" y1="21" x2="37" y2="21"/><line class="cls-5" x1="48" y1="13" x2="48" y2="21"/><line class="cls-5" x1="53" y1="22" x2="58" y2="17"/><line class="cls-5" x1="54" y1="27" x2="62" y2="27"/><line class="cls-5" x1="15" y1="39" x2="20" y2="39"/><line class="cls-5" x1="42" y1="39" x2="53" y2="39"/><line class="cls-6" x1="16" y1="8" x2="16" y2="12"/><line class="cls-6" x1="16" y1="16" x2="16" y2="20"/><line class="cls-6" x1="14" y1="14" x2="10" y2="14"/><line class="cls-6" x1="22" y1="14" x2="18" y2="14"/><line class="cls-6" x1="11" y1="23" x2="11" y2="25"/><line class="cls-6" x1="11" y1="27" x2="11" y2="29"/><line class="cls-6" x1="10" y1="26" x2="8" y2="26"/><line class="cls-6" x1="14" y1="26" x2="12" y2="26"/></g></g></svg>