<svg xmlns="http://www.w3.org/2000/svg" viewBox="0 0 62.46 61.18"><defs><style>.cls-1{fill:#e7eefa;}.cls-2{fill:#6ac5fe;}.cls-2,.cls-3,.cls-4,.cls-5,.cls-6,.cls-7{stroke:#334e6c;stroke-width:2px;}.cls-2,.cls-6,.cls-7{stroke-miterlimit:10;}.cls-3,.cls-7{fill:#fff;}.cls-3,.cls-4,.cls-5{stroke-linejoin:round;}.cls-4,.cls-5,.cls-6{fill:none;}.cls-5{stroke-linecap:round;}</style></defs><g id="Layer_2" data-name="Layer 2"><g id="Icons"><path class="cls-1" d="M24.57,8H23.9C19.67-5,0-1.42,0,13.29,0,29.55,13.89,32.34,24.23,41.63,34.58,32.34,48.47,29.56,48.47,13.3,48.47-1.41,28.8-5,24.57,8Z"/><path class="cls-2" d="M11.46,49l-3,9-3-9V13a2,2,0,0,1,2-2h2a2,2,0,0,1,2,2Z"/><path class="cls-3" d="M10.46,11h-4V8a2,2,0,0,1,2-2h0a2,2,0,0,1,2,2Z"/><line class="cls-3" x1="5.46" y1="48.02" x2="11.46" y2="48.02"/><line class="cls-4" x1="5.46" y1="16.02" x2="15.46" y2="16.02"/><line class="cls-4" x1="15.46" y1="12.02" x2="15.46" y2="27.02"/><line class="cls-5" x1="8.46" y1="57.02" x2="8.46" y2="59.02"/><path class="cls-1" d="M56.46,14h-5v6h10V19A5,5,0,0,0,56.46,14Z"/><path class="cls-6" d="M54.46,20h7V19a5,5,0,0,0-5-5h-5"/><path class="cls-7" d="M20.46,19a5,5,0,0,1,5-5h31a5,5,0,0,0-5,5V55a5,5,0,0,1-5,5h-26Z"/><path class="cls-2" d="M14.46,55a5,5,0,0,0,5,5h27a5,5,0,0,1-5-5Z"/><path class="cls-2" d="M36.08,23h-.21c-1.31-4-7.41-3.16-7.41,1.4,0,5,4.31,5.8,7.52,8.68,3.2-2.88,7.51-3.57,7.51-8.62C43.49,19.92,37.39,19,36.08,23Z"/><line class="cls-6" x1="32.46" y1="39.02" x2="46.46" y2="39.02"/><line class="cls-6" x1="32.46" y1="44.02" x2="46.46" y2="44.02"/><line class="cls-6" x1="32.46" y1="49.02" x2="46.46" y2="49.02"/><polyline class="cls-6" points="29.46 36.02 27.66 40.02 27.46 40.02 27.46 40.02 25.46 38.02"/><polyline class="cls-6" points="29.46 42.02 27.66 46.02 27.46 46.02 27.46 46.02 25.46 44.02"/></g></g></svg>